<svg xmlns="http://www.w3.org/2000/svg" xmlns:xlink="http://www.w3.org/1999/xlink" viewBox="0 0 85.49 85.49"><defs><style>.cls-1{isolation:isolate;}.cls-2{fill:#fb671d;}.cls-3{mix-blend-mode:multiply;fill:url(#linear-gradient);}.cls-4{fill:#284962;}.cls-5{fill:#14b0bf;}.cls-6{fill:#d5ecfc;}.cls-7{fill:#a6dae8;}.cls-8{fill:#fff;}.cls-9{fill:#d93d15;}.cls-10{fill:#f99a24;}.cls-11{fill:#fdc00f;}</style><linearGradient id="linear-gradient" x1="24.91" y1="25.82" x2="71.53" y2="74.37" gradientUnits="userSpaceOnUse"><stop offset="0" stop-color="#bd5600"/><stop offset="1" stop-color="#fff"/></linearGradient></defs><g class="cls-1"><g id="Слой_2" data-name="Слой 2"><g id="icons"><path class="cls-2" d="M85.49,42.75A42.68,42.68,0,0,1,51.15,84.66a42.21,42.21,0,0,1-8.4.83A42.75,42.75,0,1,1,85.49,42.75Z"/><path class="cls-3" d="M83.92,54.27A42.8,42.8,0,0,1,51.15,84.66l-37-37L17,46.14l-2.83-2.73,8-2.6-.42-6.56,1.33-6.67,6.33-4.66L39,26.25l2.63-1.19L53.82,37.31l-.3,1.23,3.67-9.8,1.66.43Z"/><path class="cls-4" d="M69.24,44.49H64.55a.63.63,0,0,0,0,1.25h4.69a1.09,1.09,0,0,1,1.09,1.09V60.57a1.09,1.09,0,0,1-1.09,1.09H45.75a1.09,1.09,0,0,1-1.1-1.09V34.07a.63.63,0,1,0-1.25,0v26.5a2.35,2.35,0,0,0,2.35,2.34H69.24a2.34,2.34,0,0,0,2.34-2.34V46.83A2.34,2.34,0,0,0,69.24,44.49Z"/><rect class="cls-5" x="29.94" y="36.25" width="36.18" height="23.43" rx="1.15"/><rect class="cls-6" x="32.72" y="38.95" width="29.64" height="18.03"/><polygon class="cls-7" points="62.36 56.98 62.36 38.95 32.72 56.98 62.36 56.98"/><path class="cls-8" d="M64.21,48.93a1,1,0,0,0,1-1h0a1,1,0,0,0-1-1h0a1,1,0,0,0-1,1h0a1,1,0,0,0,1,1Z"/><path class="cls-8" d="M64.15,53.7a.4.4,0,0,0,.4-.41V50.93a.4.4,0,0,0-.4-.41h0a.41.41,0,0,0-.41.41v2.36a.41.41,0,0,0,.41.41Z"/><path class="cls-8" d="M64.15,45.42a.41.41,0,0,0,.4-.41V42.64a.4.4,0,0,0-.4-.4h0a.4.4,0,0,0-.41.4V45a.41.41,0,0,0,.41.41Z"/><path class="cls-4" d="M50,51.52a.66.66,0,0,1-.84.38h0a.65.65,0,0,1-.37-.84l.4-1.06a.64.64,0,0,1,.83-.38h0a.65.65,0,0,1,.38.84Z"/><path class="cls-9" d="M50.77,50.35a.81.81,0,0,1-1.05.47l-.31-.12a.81.81,0,0,1-.47-1.05l7.88-20.82a.81.81,0,0,1,1-.47l.32.12a.82.82,0,0,1,.47,1.05Z"/><path class="cls-10" d="M50.6,48.83a.29.29,0,0,1-.37.17h0a.28.28,0,0,1-.16-.37l.57-1.53a.29.29,0,0,1,.37-.16h0a.29.29,0,0,1,.17.37Z"/><path class="cls-5" d="M39.75,27.44l-1.39.84A8.42,8.42,0,1,0,23.93,37l-1.39.84A10,10,0,1,1,39.75,27.44Z"/><rect class="cls-4" x="21.21" y="35.34" width="4.8" height="10.89" rx="1.62" transform="matrix(0.86, -0.52, 0.52, 0.86, -17.65, 18.01)"/><rect class="cls-4" x="39.43" y="24.39" width="4.8" height="10.89" rx="1.62" transform="translate(-9.39 25.84) rotate(-31.04)"/><path class="cls-11" d="M14.32,43.48a.4.4,0,0,1-.39-.3.41.41,0,0,1,.28-.5l5.48-1.46a.41.41,0,0,1,.5.29.41.41,0,0,1-.29.5l-5.48,1.46Z"/><path class="cls-11" d="M18.33,50.34a.41.41,0,0,1-.29-.69l4-4a.42.42,0,0,1,.58,0,.41.41,0,0,1,0,.58l-4,4A.39.39,0,0,1,18.33,50.34Z"/><path class="cls-11" d="M14.32,47.8a.4.4,0,0,1-.36-.22.41.41,0,0,1,.17-.55l6.78-3.65a.41.41,0,0,1,.55.17.4.4,0,0,1-.17.55l-6.78,3.65A.45.45,0,0,1,14.32,47.8Z"/></g></g></g></svg>