<svg xmlns="http://www.w3.org/2000/svg" viewBox="0 0 347.63 294.82"><defs><style>.cls-1{fill:#ebebeb;}.cls-2{fill:#e0e0e0;}.cls-3{fill:#5ea3ff;}.cls-4{fill:#263238;}.cls-5{fill:#ffbe9d;}.cls-6{fill:#eb996e;}.cls-7{fill:#455a64;}.cls-8{fill:#f5f5f5;}.cls-9{opacity:0.4;}.cls-10{fill:#fafafa;}</style></defs><g id="Слой_2" data-name="Слой 2"><g id="Слой_1-2" data-name="Слой 1"><path class="cls-1" d="M94.3,158.3c23.33-15.57,29-45,28.53-71.59-.09-4.44.48-9.1-1.6-13s-7-6.66-11.07-4.85c-3.35,1.5-4.87,5.31-6.78,8.45a26.3,26.3,0,0,1-10.69,9.77c-2.88,1.42-6.43,2.26-9.23.68-3.84-2.16-4.22-7.45-4.12-11.86l.54-24.64c.09-4.41.18-8.91-1.15-13.12S74.4,30,70.17,28.77s-9.52,1.1-10.49,5.4c-.4,1.79-.06,3.66-.21,5.49s-1,3.84-2.82,4.32-3.55-.79-4.87-2.09c-4.54-4.53-7.58-10.3-10.41-16S35.78,14.26,31.68,9.35,21.84.5,15.45,0,2.19,3.39.45,9.56,2.31,22.11,6.23,27.2A99.15,99.15,0,0,0,26.7,47c1.4,1,2.9,2.09,3.42,3.73.92,3-1.94,5.83-4.9,6.76-3.35,1-7,.65-10.44,1s-7.29,1.81-8.66,5C4.23,67.94,8,72.72,11.68,75.87a85.79,85.79,0,0,0,25,14.77C40,91.88,43.39,93,46,95.29s4.16,6.3,2.51,9.38-5.78,4-9.21,3.34-6.48-2.57-9.74-3.84c-6.11-2.38-14-2.08-18,3.1-2.64,3.4-2.94,8.19-1.7,12.31s3.84,7.69,6.6,11c9.66,11.54,22.12,20.9,36.28,26s27.33,6.6,41.56,1.7"/><path class="cls-2" d="M92.51,158.81c-3.75-13.45-14-45.1-20.15-60l-4.57-11c-1.51-3.61-3-7.18-4.69-10.59a197.63,197.63,0,0,0-10.8-19c-3.74-5.9-7.5-11.36-11-16.45S34.3,32,31,27.9A156.7,156.7,0,0,0,14,9.59c-2.17-2-3.9-3.5-5.09-4.5L7.51,3.87C7.2,3.62,7,3.5,7,3.5s.14.15.43.42L8.78,5.1c1.15,1,2.86,2.56,5,4.59A166.44,166.44,0,0,1,30.58,28.1c3.26,4.14,6.64,8.82,10.19,13.9s7.27,10.56,11,16.45a199.16,199.16,0,0,1,10.73,19c1.67,3.4,3.16,7,4.67,10.57s3,7.29,4.57,11c6.11,14.88,16.39,46.5,20.17,59.91"/><path class="cls-2" d="M62.89,77.15a10.07,10.07,0,0,0,.44-1.88c.24-1.22.54-3,.88-5.18.69-4.38,1.44-10.46,2.25-17.17S68.12,40.16,68.9,35.8c.38-2.18.71-3.94,1-5.15a11.23,11.23,0,0,0,.31-1.9,10.57,10.57,0,0,0-.56,1.84c-.33,1.2-.73,3-1.17,5.13-1,4.34-1.87,10.41-2.68,17.15s-1.51,12.67-2,17.19c-.27,2.1-.5,3.85-.68,5.2A11.86,11.86,0,0,0,62.89,77.15Z"/><path class="cls-2" d="M5.63,65.7a2.35,2.35,0,0,0,.59.1l1.7.17c1.48.15,3.61.35,6.23.68,5.25.62,12.48,1.75,20.4,3.34s15,3.38,20.1,4.81c2.55.7,4.6,1.32,6,1.74l1.64.48a2.32,2.32,0,0,0,.58.13,1.89,1.89,0,0,0-.54-.25l-1.6-.6c-1.39-.5-3.43-1.2-6-2-5.07-1.55-12.17-3.4-20.1-5S19.51,66.69,14.2,66.18c-2.63-.27-4.78-.4-6.26-.46H6.23A2.41,2.41,0,0,0,5.63,65.7Z"/><path class="cls-2" d="M86.93,140.5a4.7,4.7,0,0,0,.39-.69l1-2c.86-1.78,2-4.38,3.48-7.61,2.86-6.45,6.53-15.49,10.46-25.51s7.52-19.12,10.25-25.62l3.28-7.68c.36-.86.66-1.55.89-2.09a4.78,4.78,0,0,0,.27-.75,2.93,2.93,0,0,0-.39.69l-1,2c-.86,1.78-2,4.38-3.47,7.6-2.86,6.46-6.54,15.5-10.46,25.52s-7.53,19.08-10.28,25.58l-3.28,7.68-.88,2.09A3.05,3.05,0,0,0,86.93,140.5Z"/><path class="cls-2" d="M11,115.09a4.89,4.89,0,0,0,.75.3l2.21.75,8.14,2.73c6.87,2.3,16.32,5.59,26.75,9.25s19.92,6.88,26.83,9.07c3.45,1.09,6.26,1.95,8.2,2.51l2.25.63a3.7,3.7,0,0,0,.8.18,4.18,4.18,0,0,0-.76-.31L84,139.45l-8.14-2.71c-6.87-2.3-16.32-5.59-26.75-9.25s-19.91-6.89-26.82-9.07c-3.46-1.09-6.26-2-8.21-2.51l-2.24-.64A3.7,3.7,0,0,0,11,115.09Z"/><g id="freepik--character-1--inject-2"><path class="cls-3" d="M296.92,48.34H118.23A39.38,39.38,0,0,0,78.85,87.72h0V151.4H40.3L78.85,190v43.29a39.38,39.38,0,0,0,39.38,39.38H296.92a39.38,39.38,0,0,0,39.38-39.38h0V87.72a39.38,39.38,0,0,0-39.38-39.38Z"/><path class="cls-4" d="M223.92,55.07c-1.13,2.93.81,6.12,3,8.38s4.81,4.4,5.5,7.46c.57,2.57-.38,5.24-.15,7.86s1.68,5.09,2.5,7.65c1.49,4.64.89,9.71-.44,14.4A26.54,26.54,0,0,1,229,111.43a14.15,14.15,0,0,1-10.48,5,4.17,4.17,0,0,1-3.1-1.12,5,5,0,0,1-.89-2.75,268.13,268.13,0,0,1,0-60.6"/><path class="cls-4" d="M221.81,120c8.7-.38,16.74,8,16.05,16.63,8.81,2.15,15,11.84,13.31,20.74-.57,2.94-1.88,5.74-2.06,8.72-.2,3.26,1,6.43,1.59,9.63A30.34,30.34,0,0,1,249,193c-1.37,3.31-3.93,6.73-7.51,6.83a7.43,7.43,0,0,1-6-3.53,18.57,18.57,0,0,1-2.42-6.83c-1.55-7.82-2-15.85-4.16-23.52s-6.36-15.23-13.29-19.12c-3.83-2.16-8.43-3.18-11.48-6.35a12.47,12.47,0,0,1-2.25-12.9,16.43,16.43,0,0,1,9.8-9.15"/><path class="cls-4" d="M161.59,62.24c-.1-3.72,3.33-6.59,6.79-8s7.31-1.88,10.39-4c2.74-1.84,4.57-4.71,6.88-7a22.89,22.89,0,0,1,38.5,10.5c1.33,5.29.42,11.55-3.75,15.07-4.84,4.08-12,3.17-18.23,1.9s-13.23-2.52-18.41,1.13c-3.12,2.19-4.92,5.77-6.83,9.08s-4.3,6.68-7.91,7.93-8.52-.91-8.66-4.72"/><path class="cls-5" d="M176.25,63a6.21,6.21,0,0,0-5.55,6.32h0l3.71,84c.16,9.92,14.66,15.49,25.28,15.24h0c10.73-.25,11.07-5.51,11.21-14.95.22-15.76.2-21.68.21-21.59s13.55-2.28,16.32-20c1.37-8.79.9-23.21.13-35-.69-10.61-7.75-23.61-18.32-22.47Z"/><path class="cls-4" d="M224.51,88.16a2.27,2.27,0,0,1-2.18,2.29,2.16,2.16,0,0,1-2.34-2v0a2.25,2.25,0,0,1,2.18-2.29,2.17,2.17,0,0,1,2.34,2Z"/><path class="cls-4" d="M224.45,84.56c-.28.3-2-1-4.44-1s-4.23,1.24-4.5.94c-.13-.13.16-.67.94-1.24A6.15,6.15,0,0,1,220,82.15a6,6,0,0,1,3.54,1.13C224.33,83.87,224.59,84.43,224.45,84.56Z"/><path class="cls-4" d="M201.06,88.16a2.27,2.27,0,0,1-2.18,2.29,2.16,2.16,0,0,1-2.34-2v0a2.25,2.25,0,0,1,2.18-2.29,2.17,2.17,0,0,1,2.34,2Z"/><path class="cls-4" d="M200.51,85.07c-.28.3-2-1-4.44-1s-4.23,1.24-4.49.94c-.13-.13.15-.67.93-1.24a6.16,6.16,0,0,1,3.59-1.12,5.93,5.93,0,0,1,3.54,1.14C200.34,84.4,200.6,84.94,200.51,85.07Z"/><path class="cls-4" d="M209.36,103.15c0-.14,1.5-.4,4-.72.62-.07,1.21-.2,1.32-.62a3.22,3.22,0,0,0-.42-1.85l-1.86-4.74c-2.57-6.75-4.44-12.3-4.16-12.4s2.58,5.29,5.15,12l1.78,4.77a3.68,3.68,0,0,1,.33,2.44,1.6,1.6,0,0,1-1,.92,4.23,4.23,0,0,1-1,.14C210.9,103.27,209.37,103.29,209.36,103.15Z"/><path class="cls-6" d="M211.11,132a45.06,45.06,0,0,1-23.7-6.27s5.77,12.14,23.47,10.44Z"/><path class="cls-6" d="M208.34,109a4.38,4.38,0,0,0-4-1.62,4,4,0,0,0-2.77,1.49,2.53,2.53,0,0,0-.18,2.91,2.94,2.94,0,0,0,3.2.8,9.23,9.23,0,0,0,3.11-1.87,2.82,2.82,0,0,0,.7-.72.8.8,0,0,0,0-.91"/><path class="cls-4" d="M202.18,104.87c.4,0,.41,2.63,2.68,4.5s5.09,1.58,5.11,2c0,.17-.63.52-1.82.55a6.58,6.58,0,0,1-4.27-1.47,5.77,5.77,0,0,1-2.07-3.78C201.7,105.5,202,104.87,202.18,104.87Z"/><path class="cls-4" d="M201.51,80.79c-.24.67-2.68.36-5.54.71s-5.18,1.14-5.56.54c-.17-.28.23-.91,1.16-1.55a9.7,9.7,0,0,1,8.46-1C201.12,80,201.65,80.48,201.51,80.79Z"/><path class="cls-4" d="M223.51,77.5c-.43.55-2.11,0-4.14,0s-3.73.38-4.12-.2c-.18-.28.09-.83.84-1.36a6,6,0,0,1,6.65.19C223.51,76.66,223.72,77.23,223.51,77.5Z"/><path class="cls-4" d="M163.9,121.18a15.69,15.69,0,0,0,18.68-17.31c-.55-4.35-2.89-8.76-1.38-12.88,2-5.43,9.61-7.1,11.63-12.53,1.17-3.15.12-6.84,1.45-9.93,1.25-2.9,4.31-4.57,7.29-5.65s6.16-1.82,8.66-3.76,4.05-5.6,2.44-8.33A166.86,166.86,0,0,0,174,60.18c-2.89,1.08-5.92,2.38-7.63,4.94-1.8,2.72-1.71,6.22-1.56,9.48.74,15.88-1.68,30.75-.94,46.63"/><path class="cls-7" d="M159.69,116.2a1.4,1.4,0,0,1-.29-.09,3.82,3.82,0,0,1-.81-.4,5.92,5.92,0,0,1-2.2-2.6,8.71,8.71,0,0,1-.58-5.37,17.08,17.08,0,0,1,3.21-6.43c1.55-2.16,3.52-4.35,4.86-7.14a11.16,11.16,0,0,0,1.17-4.56,15.3,15.3,0,0,0-1-4.92A15,15,0,0,1,163,79.35a12,12,0,0,1,5.75-9.66A13.74,13.74,0,0,1,174.58,68a25.07,25.07,0,0,0,5.83-1,7.64,7.64,0,0,0,4.1-3.69,27.76,27.76,0,0,0,1.94-5.22,28.82,28.82,0,0,1,2-5,18.84,18.84,0,0,1,6.63-7.45,14.27,14.27,0,0,1,8.39-2.18,10.73,10.73,0,0,1,6.61,2.71A10.42,10.42,0,0,1,213,50.74a8.34,8.34,0,0,1,.41,3.4,5.3,5.3,0,0,1-.2,1.18,10.21,10.21,0,0,0,.1-1.19,8.79,8.79,0,0,0-.5-3.33,10.37,10.37,0,0,0-9.39-6.94A13.94,13.94,0,0,0,195.31,46a18.46,18.46,0,0,0-6.44,7.3,27.1,27.1,0,0,0-1.94,5,28.81,28.81,0,0,1-2,5.31A9.14,9.14,0,0,1,183.14,66a7.68,7.68,0,0,1-2.58,1.57,24.93,24.93,0,0,1-6,1.06,13,13,0,0,0-5.62,1.59,11.48,11.48,0,0,0-5.51,9.22,14.81,14.81,0,0,0,1,5.18,15.26,15.26,0,0,1,1,5.08,11.51,11.51,0,0,1-1.24,4.74c-1.4,2.86-3.39,5-5,7.17a16.72,16.72,0,0,0-3.22,6.27,8.5,8.5,0,0,0,.47,5.22,6,6,0,0,0,2.08,2.61C159.29,116.06,159.7,116.16,159.69,116.2Z"/><path class="cls-7" d="M211.08,39.09a1.68,1.68,0,0,1,.69.21,6.92,6.92,0,0,1,1.67,1A8.57,8.57,0,0,1,215.19,52a8.13,8.13,0,0,1-1.3,1.45c-.36.3-.58.43-.6.4.56-.64,1.09-1.31,1.59-2a8.63,8.63,0,0,0-1.67-11.23A21.33,21.33,0,0,0,211.08,39.09Z"/><path class="cls-7" d="M250.26,160.46a15.86,15.86,0,0,0,.51-1.88,8.7,8.7,0,0,0-.87-5.09,11.78,11.78,0,0,0-5.58-5.2,23.23,23.23,0,0,0-4.35-1.55c-1.56-.4-3.21-.73-4.86-1.27a11.12,11.12,0,0,1-4.47-2.44,7.43,7.43,0,0,1-2.11-4.24c-.27-1.49-.36-2.9-.69-4.16a8.26,8.26,0,0,0-1.61-3.18,9.18,9.18,0,0,0-4.28-2.91c-1.19-.36-1.9-.36-1.9-.42a2.17,2.17,0,0,1,.51,0,8,8,0,0,1,1.45.23,9,9,0,0,1,4.5,2.87,8.53,8.53,0,0,1,1.75,3.31c.36,1.31.47,2.74.75,4.18a7,7,0,0,0,2,4,10.66,10.66,0,0,0,4.27,2.31c1.61.52,3.26.86,4.83,1.27a22.21,22.21,0,0,1,4.4,1.58,12,12,0,0,1,5.7,5.47,8.62,8.62,0,0,1,.74,5.29,6.84,6.84,0,0,1-.45,1.39A2.7,2.7,0,0,1,250.26,160.46Z"/><path class="cls-4" d="M173.34,129.14c-9-2.4-16.7-11.17-19.84-19.9s-3.14-18.26-2.33-27.5c.58-6.69,1.76-13.77,6.2-18.81,6.7-7.6,14-11.48,24.08-11.16"/><path class="cls-8" d="M225.64,148.64l-8.35-2.1a4.75,4.75,0,0,0,1.66-5.82,7.64,7.64,0,0,0-6.38-4.73l-38.06-4.3a3,3,0,0,0-3.19,1.88q-2.53,6.44-.17,10.6H171l-7.34,1.46L151.19,255.37l81.48-3.81Z"/><path class="cls-4" d="M213.66,147a9.85,9.85,0,0,1-1.53.3c-1,.16-2.43.33-4.21.51A98.82,98.82,0,0,1,180,146.38c-1.76-.35-3.17-.67-4.14-.93a8.5,8.5,0,0,1-1.49-.44,8.72,8.72,0,0,1,1.53.25c1,.19,2.41.46,4.17.76a115.46,115.46,0,0,0,27.79,1.38c1.78-.12,3.22-.25,4.22-.35A10,10,0,0,1,213.66,147Z"/><path class="cls-2" d="M176.83,164.4a29.94,29.94,0,0,1,2.85-4.74,29.41,29.41,0,0,1,3.29-4.45,29.7,29.7,0,0,1-2.86,4.74A29.67,29.67,0,0,1,176.83,164.4Z"/><path class="cls-2" d="M203.09,166.26a57.54,57.54,0,0,1-6.83-8.5,28.78,28.78,0,0,1,3.62,4.09A28.4,28.4,0,0,1,203.09,166.26Z"/><path class="cls-2" d="M190.89,180.21a30.15,30.15,0,0,1-1.23-5.46,28.88,28.88,0,0,1-.71-5.55,30,30,0,0,1,1.23,5.46A31.34,31.34,0,0,1,190.89,180.21Z"/><path class="cls-2" d="M210.94,181.07a44.76,44.76,0,0,1-4.62,4.92,44.91,44.91,0,0,1-5,4.55,43.88,43.88,0,0,1,4.62-4.92A44.91,44.91,0,0,1,210.94,181.07Z"/><path class="cls-2" d="M184.05,199.77a23.23,23.23,0,0,1-8.67-9.19c.14-.09,1.67,2.31,4.08,4.84S184.15,199.64,184.05,199.77Z"/><path class="cls-2" d="M192.69,214.21c0,.15-2.28.88-4.92,2.29s-4.57,2.89-4.67,2.76a14.4,14.4,0,0,1,4.43-3.23A14,14,0,0,1,192.69,214.21Z"/><path class="cls-2" d="M206.74,215.14a9.9,9.9,0,0,1-1.59-1.71c-.92-1.1-2.15-2.67-3.43-4.46s-2.36-3.46-3.11-4.7a9.72,9.72,0,0,1-1.1-2.06,11.67,11.67,0,0,1,1.41,1.86l3.23,4.6,3.29,4.54A10.53,10.53,0,0,1,206.74,215.14Z"/><path class="cls-2" d="M208.15,227.46a28.74,28.74,0,0,1-6,1.4,29.5,29.5,0,0,1-6.15.61,48,48,0,0,1,6.07-1.12A50.05,50.05,0,0,1,208.15,227.46Z"/><path class="cls-2" d="M185.4,145.41c-.07,0,.41-.6.82-1.66a8.79,8.79,0,0,0,.44-4.34,17.69,17.69,0,0,0-1.29-4.27,8.55,8.55,0,0,1-.68-1.76,5.72,5.72,0,0,1,1,1.61,13.84,13.84,0,0,1,1.47,4.34,8.16,8.16,0,0,1-.61,4.57A3.23,3.23,0,0,1,185.4,145.41Z"/><path class="cls-2" d="M200.62,137.19a9.11,9.11,0,0,1,1.61,6.88c-.15,0-.17-1.59-.62-3.48S200.51,137.27,200.62,137.19Z"/><path class="cls-5" d="M269.27,215.38l37.9-66.57,4.57-11.55s11.82-25.4,12.64-28c.95-3,2.62-3.24,3.7-2.82,1.68.67,2.22,3.17,1.48,5.76-.26.89-4.85,14.85-4.85,14.85a31.83,31.83,0,0,1,3.92-2.91c2.91-2,8.24-1.9,13.18-.14s6.16,2.69,5.57,4.63a2.58,2.58,0,0,1-1.59,1.57,5.05,5.05,0,0,1-3.65.08c-7.94-2.7-11.46.88-11.46.88l-.59,1.51s6-1.91,9.36.79a4.91,4.91,0,0,1,1.24,1.44A6.58,6.58,0,0,1,343.12,146a2.74,2.74,0,0,1-3,.76,3.41,3.41,0,0,1-1.13-1.31,5.17,5.17,0,0,0-.55-.75l-2.26,4s-5.57,8.7-7.57,12.77L302.51,231a18.41,18.41,0,0,1-23.69,10.77l-.31-.12h0a18.42,18.42,0,0,1-9.24-26.23Z"/><path class="cls-5" d="M309.78,148.58c1.34.88,3.19.28,4.39-.76s2-2.47,3.16-3.6c3.37-3.37,9-3.69,12.23-7.22.45-.49.85-1.24.46-1.78s-1.11-.44-1.71-.32L312.8,138"/><path class="cls-6" d="M312.8,138a6.23,6.23,0,0,1,1.64-.5c1.07-.27,2.63-.62,4.55-1l6.76-1.43,2-.41a3.14,3.14,0,0,1,2.37.08,1.33,1.33,0,0,1,.5,1.41,2.67,2.67,0,0,1-.6,1.14,10.27,10.27,0,0,1-1.75,1.54c-2.58,1.79-5.41,2.52-7.67,3.71a11.33,11.33,0,0,0-2.94,2c-.8.77-1.43,1.65-2.09,2.4a5.6,5.6,0,0,1-4.11,2.31c-1.19,0-1.68-.59-1.64-.6a4.69,4.69,0,0,0,1.62.25,5.44,5.44,0,0,0,3.64-2.37,29.26,29.26,0,0,1,2.05-2.52,12.07,12.07,0,0,1,3.09-2.22c2.33-1.26,5.15-2,7.53-3.7a11,11,0,0,0,1.58-1.39c.44-.49.59-1.08.28-1.25a3.16,3.16,0,0,0-1.69.05l-2,.37-6.8,1.25c-1.94.34-3.51.6-4.6.76A5.51,5.51,0,0,1,312.8,138Z"/><path class="cls-6" d="M329.88,132.69a6.5,6.5,0,0,1,1.78-2.4,5,5,0,0,1,3-1,13,13,0,0,1,4,.66,20.94,20.94,0,0,0,4.06.92,6.61,6.61,0,0,0,3.4-.52,2.62,2.62,0,0,0,1.45-1.82,1.54,1.54,0,0,0,0-.85c-.06,0-.06.3-.21.8A2.42,2.42,0,0,1,346,130a6.66,6.66,0,0,1-3.19.36,22.31,22.31,0,0,1-3.94-1,12.66,12.66,0,0,0-4.14-.64,5.29,5.29,0,0,0-3.23,1.2,4.48,4.48,0,0,0-1.35,1.89C329.86,132.38,329.84,132.68,329.88,132.69Z"/><path class="cls-6" d="M329.83,111.2a16.73,16.73,0,0,0-.94,2.77c-.59,1.92-1.29,4.2-2.07,6.72s-1.55,4.78-2.17,6.69a15.82,15.82,0,0,0-.83,2.8,13.89,13.89,0,0,0,1.22-2.66c.66-1.68,1.5-4,2.34-6.65s1.49-5,1.91-6.79A14.2,14.2,0,0,0,329.83,111.2Z"/><path class="cls-6" d="M332,136.87a3.54,3.54,0,0,0,.92,0,2.69,2.69,0,0,1,2.18.58,1.46,1.46,0,0,1,.35,1.4,7.64,7.64,0,0,1-.71,1.76,3.29,3.29,0,0,0-.37,2.3,2.83,2.83,0,0,0,1.78,1.79,3.18,3.18,0,0,0,2.49-.25,3.88,3.88,0,0,0,1.65-1.61,13,13,0,0,0,1.1-3.6,7.17,7.17,0,0,0,0-2.53,1.57,1.57,0,0,0-.35-.86c-.05,0,.08.32.13.89a9.05,9.05,0,0,1-.21,2.43,14.16,14.16,0,0,1-1.16,3.41,3.14,3.14,0,0,1-3.48,1.57,2.25,2.25,0,0,1-1.42-1.4,2.76,2.76,0,0,1,.31-1.91,8.27,8.27,0,0,0,.7-1.91,1.88,1.88,0,0,0-.55-1.77,2.84,2.84,0,0,0-2.5-.52A2.55,2.55,0,0,0,332,136.87Z"/><path class="cls-6" d="M338.56,143.87a1.38,1.38,0,0,0-.17.82,2.56,2.56,0,0,0,1.16,1.95,3.38,3.38,0,0,0,3.37,0,5.53,5.53,0,0,0,2.54-3.24,6.59,6.59,0,0,0,0-4.12,6.29,6.29,0,0,0-1.85-2.8,5.85,5.85,0,0,0-1.93-1.16,1.75,1.75,0,0,0-.81-.18,10.66,10.66,0,0,1,2.46,1.64,6.28,6.28,0,0,1,1.58,6.44,5.16,5.16,0,0,1-2.25,2.95,3,3,0,0,1-2.89.08,2.43,2.43,0,0,1-1.16-1.63A7.36,7.36,0,0,1,338.56,143.87Z"/><path class="cls-6" d="M325.94,150.15a2.38,2.38,0,0,0-1.34-.41,5.46,5.46,0,0,0-3.48.83l.43.29a16.88,16.88,0,0,0,.28-2,12.58,12.58,0,0,0-1-6.76,31.38,31.38,0,0,1,.43,6.71,17.51,17.51,0,0,1-.25,1.91l-.12.65.55-.37a5.78,5.78,0,0,1,3.15-.94C325.42,150.08,325.92,150.22,325.94,150.15Z"/><path class="cls-6" d="M333.83,126.43c-.16,0,.06,1.2,1.12,2.12s2.25,1,2.25.83-.95-.46-1.86-1.27S334,126.37,333.83,126.43Z"/><path class="cls-3" d="M215.51,270.62l39.65.39-6.65-28.77,2.23,5.43a27.31,27.31,0,0,0,25.27,17h0c12.54,0,21.21-9.33,26.51-20.69,12.4-26.56,24.35-69.33,24.35-69.33L302.7,153.36c-17.5,33.1-33.94,61.84-33.94,61.84s-4.75-14.43-8.42-27.31-3.64-19.64-9.27-26.06c-8.67-9.88-21-12.33-32.48-15.29L218.16,200l-2.65,70.64"/><path class="cls-3" d="M170.14,230.87l72.2,14,3.51,27.74H135.15a21.8,21.8,0,0,1-22.07-21.53c0-.67,0-1.33.07-2,1.59-20.22,3.32-45.12,4.64-55.65,1-8.21,4.3-16.7,8.17-24,5.59-10.52,24.22-24,40.55-24.7l3.09,68.77"/><g class="cls-9"><path d="M215.51,270.62l39.65.39-6.65-28.77,2.23,5.43a27.31,27.31,0,0,0,25.27,17h0c12.54,0,21.21-9.33,26.51-20.69,12.4-26.56,24.35-69.33,24.35-69.33L302.7,153.36c-17.5,33.1-33.94,61.84-33.94,61.84s-4.75-14.43-8.42-27.31-3.64-19.64-9.27-26.06c-8.67-9.88-21-12.33-32.48-15.29L218.16,200l-2.65,70.64"/><path d="M170.14,230.87l65.12,11.94a6.82,6.82,0,0,1,5.43,5.29l5.16,24.57H135.15a21.8,21.8,0,0,1-22.07-21.53c0-.67,0-1.33.07-2,1.59-20.22,3.32-45.12,4.64-55.65,1-8.21,4.3-16.7,8.17-24,5.59-10.52,24.22-24,40.55-24.7l3.09,68.77"/></g><path class="cls-4" d="M156.39,228.81a2.43,2.43,0,0,1,0-.66v-8.89c0-5.87-.11-14-.56-22.93-.23-4.48-.52-8.74-.83-12.6a52,52,0,0,0-1.45-10.16,14.46,14.46,0,0,0-3.18-6,23,23,0,0,0-1.86-1.7,7.68,7.68,0,0,1,2.05,1.53,14.11,14.11,0,0,1,3.39,6.07,50,50,0,0,1,1.56,10.26c.34,3.87.64,8.13.87,12.61.46,9,.51,17.09.41,23-.06,2.94-.14,5.32-.21,7l-.11,1.89A2.32,2.32,0,0,1,156.39,228.81Z"/><path class="cls-4" d="M240.94,246.87a11,11,0,0,0-2.63-2.13,16.52,16.52,0,0,0-3.69-1.47c-1.49-.43-3.24-.76-5.17-1.15-7.72-1.58-18.37-3.77-30.17-6s-22.54-4-30.31-5.24l-9.21-1.47-2.5-.42a6.39,6.39,0,0,1-.87-.18,5.24,5.24,0,0,1,.88.08l2.52.32c2.18.29,5.34.73,9.23,1.31,7.79,1.16,18.54,2.88,30.35,5.09s22.46,4.45,30.15,6.11c1.93.42,3.68.78,5.18,1.24a15.58,15.58,0,0,1,3.71,1.58,7.92,7.92,0,0,1,2,1.6,5.17,5.17,0,0,1,.42.51A.92.92,0,0,1,240.94,246.87Z"/><path class="cls-4" d="M156.61,228.81c0,.09-1.33.4-3.39,1.24a29.09,29.09,0,0,0-3.5,1.72,31.7,31.7,0,0,0-3.89,2.74,30.1,30.1,0,0,0-3.32,3.36,27.18,27.18,0,0,0-2.3,3.14c-1.18,1.89-1.72,3.17-1.81,3.13a3.77,3.77,0,0,1,.31-.93,19.63,19.63,0,0,1,1.18-2.39,27,27,0,0,1,2.25-3.26,25.56,25.56,0,0,1,7.4-6.21,23.77,23.77,0,0,1,3.59-1.65,18.79,18.79,0,0,1,2.56-.75A3.21,3.21,0,0,1,156.61,228.81Z"/><path class="cls-4" d="M249.84,246.09a4.26,4.26,0,0,1-.15-.69c-.08-.5-.19-1.16-.32-2-.28-1.73-.65-4.23-1.07-7.33-.84-6.19-1.86-14.77-2.72-24.27s-1.37-18.12-1.65-24.37c-.14-3.12-.22-5.65-.26-7.4v-2a4.09,4.09,0,0,1,0-.7,3.27,3.27,0,0,1,.08.7l.13,2c.11,1.8.25,4.31.43,7.38.37,6.24.95,14.85,1.8,24.34s1.82,18.07,2.57,24.27c.37,3.06.68,5.55.9,7.35.09.83.17,1.49.23,2A2.9,2.9,0,0,1,249.84,246.09Z"/><path class="cls-4" d="M273.78,235.34a7.2,7.2,0,0,1-.58-.66,20.41,20.41,0,0,1-1.33-2,26.39,26.39,0,0,1-3.55-15.16,17.09,17.09,0,0,1,.32-2.37,3.54,3.54,0,0,1,.22-.85c.09,0-.1,1.24-.17,3.24a29.8,29.8,0,0,0,3.5,15C273.13,234.27,273.86,235.28,273.78,235.34Z"/><path class="cls-10" d="M156.1,191.65a1.73,1.73,0,0,1-.37.08,9.81,9.81,0,0,1-1.09.11,16.8,16.8,0,0,1-4-.32,29.11,29.11,0,0,1-5.69-1.78c-2.07-.86-4.27-2-6.57-3.11a48.52,48.52,0,0,0-6.67-2.76,22.13,22.13,0,0,0-5.74-1.13,18.35,18.35,0,0,0-5.37.61,1.23,1.23,0,0,1,.35-.16,7,7,0,0,1,1-.35,13.48,13.48,0,0,1,4-.46,21.76,21.76,0,0,1,5.88,1,44.46,44.46,0,0,1,6.74,2.78c2.31,1.14,4.49,2.26,6.53,3.13a30.46,30.46,0,0,0,5.58,1.86A25.26,25.26,0,0,0,156.1,191.65Z"/><path class="cls-10" d="M168.51,189.22a36.86,36.86,0,0,1-5.88,1.26,33.6,33.6,0,0,1-6,.75,34.79,34.79,0,0,1,5.88-1.26A33.6,33.6,0,0,1,168.51,189.22Z"/><path class="cls-10" d="M155.65,210.68a7.76,7.76,0,0,1-1.45.63c-.95.37-2.34.87-4.07,1.43a105.64,105.64,0,0,1-13.82,3.42c-2.74.48-5.37.83-7.77,1.07a32,32,0,0,1-6.42.17,11,11,0,0,1-4.16-1.19,7.39,7.39,0,0,1-1-.64,1.67,1.67,0,0,1-.31-.28A13.27,13.27,0,0,0,118,216a11.7,11.7,0,0,0,4.11,1,33.53,33.53,0,0,0,6.33-.28c2.39-.27,5-.63,7.73-1.11a128,128,0,0,0,13.8-3.25c1.74-.52,3.14-1,4.11-1.27A10.27,10.27,0,0,1,155.65,210.68Z"/><path class="cls-10" d="M168.18,216a30.13,30.13,0,0,1-5.45.35,29.2,29.2,0,0,1-5.45-.17,28.42,28.42,0,0,1,5.45-.35A28.37,28.37,0,0,1,168.18,216Z"/><path class="cls-10" d="M116.72,261.51a1.92,1.92,0,0,1,.11-.54c.1-.4.24-.89.4-1.5l.3-1.08c.13-.39.3-.8.46-1.25a29.11,29.11,0,0,1,1.24-3l.81-1.71c.29-.6.66-1.18,1-1.8a43.41,43.41,0,0,1,2.46-3.81,45.51,45.51,0,0,1,15.57-13.55,41.56,41.56,0,0,1,4.12-1.91c.67-.25,1.29-.54,1.92-.74l1.81-.57a28.7,28.7,0,0,1,3.16-.81c.47-.1.9-.21,1.3-.28l1.12-.15,1.54-.19a1.63,1.63,0,0,1,.54,0,2.42,2.42,0,0,1-.53.13l-1.52.29-1.1.19-1.29.32a31.07,31.07,0,0,0-3.11.88l-1.78.6c-.62.21-1.24.5-1.89.76a43.07,43.07,0,0,0-4.06,1.93,50.16,50.16,0,0,0-8.45,5.86,51.12,51.12,0,0,0-7,7.55c-.9,1.3-1.79,2.52-2.47,3.75-.35.61-.72,1.18-1,1.77l-.84,1.68a30,30,0,0,0-1.3,3c-.17.44-.35.85-.49,1.23l-.35,1.06-.49,1.47A2.6,2.6,0,0,1,116.72,261.51Z"/><path class="cls-10" d="M166.87,230.79a18,18,0,0,0-4.1,5.16,24.64,24.64,0,0,0-2.3,6.79,70,70,0,0,0-1,8.79,62.76,62.76,0,0,1-1,8.85,24.74,24.74,0,0,1-2.51,6.85,15,15,0,0,1-3,3.85,9.34,9.34,0,0,1-1.05.83c-.25.17-.39.26-.4.24a17.6,17.6,0,0,0,4.18-5.1,25,25,0,0,0,2.36-6.76,65,65,0,0,0,1-8.79,64.06,64.06,0,0,1,1-8.86,24.53,24.53,0,0,1,2.44-6.86,15.61,15.61,0,0,1,3-3.9,10.1,10.1,0,0,1,1-.84A1.56,1.56,0,0,1,166.87,230.79Z"/><path class="cls-10" d="M183.94,272.78c-.14,0,0-8.62.37-19.24s.75-19.23.89-19.23,0,8.62-.37,19.25S184.08,272.79,183.94,272.78Z"/><path class="cls-10" d="M211.08,271.3a6.19,6.19,0,0,1-.44-1.25c-.16-.5-.3-1-.41-1.5s-.31-1.26-.42-2a35.52,35.52,0,0,1-.53-5.34,37.48,37.48,0,0,1,2-12.95,35.27,35.27,0,0,1,2.11-4.94c.33-.69.7-1.27,1-1.79a11.21,11.21,0,0,1,.84-1.31,5.84,5.84,0,0,1,.79-1.06c.09.05-1,1.6-2.31,4.33a37.55,37.55,0,0,0-2,4.92,39.1,39.1,0,0,0-2,12.79,40.83,40.83,0,0,0,.41,5.29C210.62,269.47,211.18,271.27,211.08,271.3Z"/><path class="cls-10" d="M165,160.78c0,.08-1.58-.61-4.18-1.45a47.44,47.44,0,0,0-21-1.86c-2.7.37-4.35.79-4.37.7a4.16,4.16,0,0,1,1.13-.37,29.07,29.07,0,0,1,3.18-.69A42.5,42.5,0,0,1,160.93,159q1.53.54,3,1.23A4.34,4.34,0,0,1,165,160.78Z"/><path class="cls-10" d="M244,202.87a28.69,28.69,0,0,1-3.71-.06c-2.29-.09-5.45-.21-8.94-.29s-6.65-.13-8.94-.15a28.7,28.7,0,0,1-3.71-.13,4.21,4.21,0,0,1,1-.12c.64,0,1.57-.09,2.72-.12,2.29-.07,5.45-.09,9,0s6.66.27,9,.46c1.14.09,2.06.17,2.7.25A4.21,4.21,0,0,1,244,202.87Z"/><path class="cls-10" d="M263.73,199.08c0,.09-1.25.52-3.2,1.48A31.32,31.32,0,0,0,248,211.7c-1.18,1.83-1.75,3.05-1.83,3a2.85,2.85,0,0,1,.32-.9,19.43,19.43,0,0,1,1.2-2.31,27.58,27.58,0,0,1,5.46-6.61,28.12,28.12,0,0,1,7.19-4.67,19.25,19.25,0,0,1,2.43-.92A3.69,3.69,0,0,1,263.73,199.08Z"/><path class="cls-10" d="M254,167a14.84,14.84,0,0,0-5.08.71,34.09,34.09,0,0,0-5.13,2.28,41.92,41.92,0,0,1-6.34,2.85,26,26,0,0,1-12.53.81,23.38,23.38,0,0,1-3.69-1,6.71,6.71,0,0,1-1.29-.56,51.32,51.32,0,0,0,5,1.2,26.88,26.88,0,0,0,12.31-.95,46.41,46.41,0,0,0,6.29-2.78,30.79,30.79,0,0,1,5.23-2.2,11.66,11.66,0,0,1,3.8-.55,6.64,6.64,0,0,1,1,.1C253.87,167,254,167,254,167Z"/><path class="cls-10" d="M249,234.05a5.37,5.37,0,0,1-1.16.55c-.38.16-.85.35-1.41.53s-1.19.42-1.9.6a40.14,40.14,0,0,1-5.1,1.06,42.23,42.23,0,0,1-6.36.33,43.49,43.49,0,0,1-6.33-.71,38.88,38.88,0,0,1-5-1.37c-.71-.22-1.32-.49-1.86-.71s-1-.43-1.38-.61a6.5,6.5,0,0,1-1.13-.62c0-.09,1.69.71,4.49,1.59a43,43,0,0,0,5,1.24,41.54,41.54,0,0,0,12.54.38,43.72,43.72,0,0,0,5.06-.94C247.28,234.65,249,234,249,234.05Z"/><path class="cls-10" d="M272,263.65a2.37,2.37,0,0,1-.39-.32,13.19,13.19,0,0,1-1-1,23.73,23.73,0,0,1-3.16-4.24A34.54,34.54,0,0,1,263,241.34a67.55,67.55,0,0,1,2.27-17.27c.54-2.16,1-3.9,1.37-5.09.17-.55.31-1,.42-1.37s.16-.48.18-.47a1.67,1.67,0,0,1-.08.49c-.08.38-.19.84-.32,1.4-.3,1.29-.71,3-1.21,5.13a72.35,72.35,0,0,0-2.09,17.16,35.44,35.44,0,0,0,4.21,16.55,27.06,27.06,0,0,0,3,4.29C271.51,263.12,272,263.61,272,263.65Z"/><path class="cls-10" d="M308.37,229.69a19.64,19.64,0,0,0-5.29-3,43,43,0,0,0-6.4-1.67,72.93,72.93,0,0,1-8-1.83A32.9,32.9,0,0,1,276,215.57a30.88,30.88,0,0,1-3-3.37c-.33-.42-.55-.77-.71-1s-.23-.36-.21-.37a11.56,11.56,0,0,1,1.08,1.24,34.9,34.9,0,0,0,3.09,3.23,34,34,0,0,0,12.57,7.39,76.32,76.32,0,0,0,7.91,1.86,41,41,0,0,1,6.44,1.79,15.11,15.11,0,0,1,3.94,2.2,7,7,0,0,1,.92.81C308.29,229.57,308.39,229.68,308.37,229.69Z"/><path class="cls-10" d="M319.81,196.32a7.93,7.93,0,0,1-1.07-.93c-.33-.31-.73-.69-1.23-1.11s-1-.92-1.68-1.4a46.18,46.18,0,0,0-17.4-8.75,46.37,46.37,0,0,0-5.59-1.09c-.8-.13-1.53-.18-2.17-.24s-1.2-.11-1.65-.13a8.4,8.4,0,0,1-1.41-.13,6.67,6.67,0,0,1,1.41-.07,15.51,15.51,0,0,1,1.67,0,16.61,16.61,0,0,1,2.2.16,43.4,43.4,0,0,1,5.65,1,43.57,43.57,0,0,1,12.9,5.52,42.76,42.76,0,0,1,4.63,3.41,19.13,19.13,0,0,1,1.64,1.48,14.48,14.48,0,0,1,1.17,1.18A6.53,6.53,0,0,1,319.81,196.32Z"/><path class="cls-10" d="M232.31,150.42a7.55,7.55,0,0,1-1.9.91,34.41,34.41,0,0,1-4.85,1.5,35.4,35.4,0,0,1-5,.8,7.39,7.39,0,0,1-2.1,0c0-.16,3.17-.42,7-1.33S232.25,150.27,232.31,150.42Z"/><path class="cls-5" d="M267.78,291.26a2.78,2.78,0,0,1-1.89,3.44,2.89,2.89,0,0,1-1.17.09h0a2.77,2.77,0,0,1-2.28-2l-.85-3.14h.13a2.9,2.9,0,0,1-2.31,3.4,3,3,0,0,1-.94,0h0c-1.31,0-2.44-1.91-2.82-2.92h0a5.46,5.46,0,0,1-5.08-2.44l-5.87-9.16-10.87-7.95,6.58-23.49,23.39,15.14c.92.72,1.06,1,2.52,2.37l15.1,13.89c-1.71,1-3.16,1-5.54,0s-12.8-8-12.8-8l4.7,20.65"/><path class="cls-6" d="M247.77,271.94a4.79,4.79,0,0,1,.69.41l.78.54a4.46,4.46,0,0,1,1,.84,4.2,4.2,0,0,1,.8,1.35c.18.53.37,1.07.57,1.64l1.28,3.76c.89,2.68,1.67,5.1,2.21,6.87a16.87,16.87,0,0,1,.77,2.89,17.19,17.19,0,0,1-1.12-2.78c-.63-1.74-1.47-4.14-2.36-6.81-.43-1.33-.85-2.6-1.24-3.77-.18-.58-.35-1.13-.52-1.65A4.29,4.29,0,0,0,250,274a4.89,4.89,0,0,0-.86-.84l-.72-.61C248,272.17,247.75,272,247.77,271.94Z"/><path class="cls-6" d="M261.84,290.19a4.51,4.51,0,0,1-.33-1l-.75-2.68c-.64-2.26-1.49-5.39-2.58-8.8s-2.23-6.45-3.6-8.33a7.23,7.23,0,0,0-1.91-1.91c-.55-.34-.9-.44-.89-.5a.65.65,0,0,1,.27,0,3.13,3.13,0,0,1,.72.27,6.52,6.52,0,0,1,2.11,1.87c1.49,1.9,2.69,5,3.79,8.39s1.9,6.58,2.44,8.87c.27,1.14.47,2.07.6,2.72A3.36,3.36,0,0,1,261.84,290.19Z"/><path class="cls-6" d="M267.88,291.61a4.49,4.49,0,0,1-.41-1.05c-.25-.8-.56-1.77-.93-2.92-.76-2.47-1.77-5.89-2.86-9.67s-2-7.1-2.75-9.7a4.65,4.65,0,0,0-1.6-2.44,5.59,5.59,0,0,0-1-.52.51.51,0,0,1,.3,0,2.29,2.29,0,0,1,.79.33,4.68,4.68,0,0,1,1.83,2.49c.82,2.47,1.79,5.89,2.9,9.67s2.05,7.23,2.72,9.72c.3,1.16.56,2.15.76,3A5.75,5.75,0,0,1,267.88,291.61Z"/></g></g></g></svg>