<svg xmlns="http://www.w3.org/2000/svg" viewBox="0 0 201.43 66.04"><defs><style>.cls-1{fill:#1d2d3e;}.cls-2{fill:#f8f4eb;}.cls-3{fill:#13161e;}.cls-4{fill:#0099c2;}.cls-5{fill:#c0321a;}.cls-6{fill:#fdbe4f;}.cls-7{fill:#102131;}.cls-8{isolation:isolate;}</style></defs><g id="Слой_2" data-name="Слой 2"><g id="Слой_1-2" data-name="Слой 1"><path class="cls-1" d="M24.36,33.22,25.8,20.6l1.2,0c4-.11,8.5.57,7.87,6.07s-5.27,6.43-9.31,6.54l-1.2,0m8.72-22.85-18.51.51L8.79,61.47l12.38-.34,2.22-19.46h.13L33,60.8l15.41-.42L35.79,40.06c6.91-1.46,11.26-7.6,12.06-14.58,1.23-10.81-5.36-15.37-14.77-15.11"/><path class="cls-2" d="M20.79,29.42,22.23,16.8l1.2,0c4-.11,8.5.57,7.87,6.07S26,29.27,22,29.38l-1.2,0M29.51,6.57,11,7.08,5.22,57.68l12.38-.35,2.22-19.46H20L29.41,57l15.41-.43L32.22,36.26c6.91-1.46,11.26-7.6,12.06-14.58,1.23-10.8-5.36-15.37-14.77-15.11"/><polygon class="cls-3" points="21.48 38.02 30.63 56.53 30.81 56.53 21.66 38.02 21.48 38.02"/><path class="cls-3" d="M32,18.85A6.16,6.16,0,0,1,32.73,23c-.7,6.09-6,6.94-9.85,7l-1.28,0-.07.64,1.84,0c3.9-.11,9.16-1,9.86-7a5.86,5.86,0,0,0-1-4.47A2.52,2.52,0,0,0,32,18.85Z"/><path class="cls-3" d="M33.71,7.36a23.88,23.88,0,0,0-3.32-.13l-18,.5L6.72,57.19h.57L12.87,8.35l18-.5A23.67,23.67,0,0,1,34.2,8c3.7.41,6.52,1.72,8.4,3.88l-.22-.3C40.5,9.21,37.59,7.79,33.71,7.36Z"/><polyline class="cls-4" points="48.87 12.43 14.5 13.38 14.26 15.53 48.62 14.58 48.87 12.43"/><polyline class="cls-4" points="48.22 9.24 14.87 10.16 14.63 12.31 47.98 11.38 48.22 9.24"/><polyline class="cls-4" points="45.56 6.1 15.24 6.94 14.99 9.09 45.31 8.25 45.56 6.1"/><polyline class="cls-4" points="37.84 3.11 15.61 3.72 15.36 5.87 37.6 5.25 37.84 3.11"/><polyline class="cls-5" points="16.65 31.7 16.47 31.71 25.67 50.31 25.85 50.31 16.65 31.7"/><path class="cls-5" d="M25.37,1l-18,.5L1.71,51l.5,0L7.81,2l18-.5C31.09,1.33,35,2.69,37.46,5.35,35.08,2.35,31,.8,25.37,1"/><path class="cls-5" d="M26.9,12.41a5.94,5.94,0,0,1,.83,4.27c-.7,6.13-6,7-9.88,7.09l-1.2,0-.06.53,1.7,0c3.91-.11,9.18-1,9.88-7.1.26-2.28-.28-3.79-1.27-4.79"/><polyline class="cls-6" points="0.39 56.42 0 57.82 12.66 59.88 13.05 58.49 0.39 56.42"/><polyline class="cls-6" points="23.22 57.37 22.83 58.77 27.21 59.48 27.6 58.09 23.22 57.37"/><polyline class="cls-6" points="0.81 53.72 0.43 55.11 13.09 57.18 13.48 55.79 0.81 53.72"/><polyline class="cls-6" points="22.18 54.43 21.8 55.82 38.84 58.6 39.23 57.21 22.18 54.43"/><polyline class="cls-6" points="1.24 51.01 0.85 52.41 13.03 54.39 13.42 53 1.24 51.01"/><polyline class="cls-6" points="20.66 51.4 20.27 52.8 36.83 55.5 37.22 54.1 20.66 51.4"/><polyline class="cls-6" points="4.35 48.74 3.96 50.14 13.46 51.69 13.84 50.29 4.35 48.74"/><polyline class="cls-6" points="1.68 48.31 1.29 49.7 3.96 50.14 4.35 48.74 1.68 48.31"/><polyline class="cls-6" points="19.02 48.36 18.64 49.75 35.31 52.48 35.7 51.08 19.02 48.36"/><polyline class="cls-6" points="1.61 45.52 1.22 46.91 13.89 48.98 14.28 47.59 1.61 45.52"/><polyline class="cls-6" points="33.45 47.94 33.06 49.33 33.06 49.33 33.06 49.33 33.18 49.35 33.58 47.96 33.45 47.94"/><polyline class="cls-6" points="17.63 45.35 17.23 46.75 33.06 49.33 33.06 49.33 33.45 47.94 17.63 45.35"/><polyline class="cls-6" points="2.04 42.81 1.65 44.21 14.31 46.27 14.7 44.88 2.04 42.81"/><polyline class="cls-6" points="16.1 42.33 15.71 43.73 31.3 46.27 31.69 44.88 16.1 42.33"/><polyline class="cls-5" points="20.93 43.7 8.55 44.05 6.7 60.18 19.08 59.84 20.93 43.7"/><polyline class="cls-5" points="35.8 43.29 22.46 43.66 30.31 59.53 45.6 59.11 35.8 43.29"/><path class="cls-3" d="M19.18,26.4l1.44-12.61,1.2,0c4-.12,8.5.57,7.87,6.07s-5.27,6.43-9.31,6.54l-1.2,0M27.9,3.56,9.39,4.07,3.61,54.66,16,54.32l2.22-19.46h.13L27.8,54l15.41-.42L30.61,33.25c6.91-1.47,11.26-7.61,12.06-14.58C43.9,7.86,37.31,3.3,27.9,3.56"/><polyline class="cls-6" points="18.14 33.57 17.96 33.57 27.16 52.18 27.34 52.17 18.14 33.57"/><path class="cls-6" d="M26.86,2.82l-18,.5L3.2,52.84h.5l5.6-49,18-.5c5.28-.15,9.22,1.21,11.64,3.87-2.37-3-6.47-4.55-12.08-4.4"/><path class="cls-6" d="M28.39,14.28a5.94,5.94,0,0,1,.83,4.27c-.7,6.13-6,7-9.88,7.09l-1.2,0-.06.54,1.7-.05c3.91-.1,9.18-1,9.88-7.09.26-2.29-.28-3.8-1.27-4.79"/><text/><polyline class="cls-1" points="114.36 28.04 108.54 28.22 104.8 56.02 117.58 55.62 118.41 49.5 111.44 49.72 114.36 28.04"/><polyline class="cls-2" points="112.76 25.95 106.95 26.13 103.2 53.93 115.99 53.53 116.81 47.41 109.84 47.63 112.76 25.95"/><polygon class="cls-7" points="107.13 25.88 107.09 26.15 103.35 53.95 103.3 54.31 103.57 54.3 103.57 54.29 103.61 53.99 103.61 53.99 107.35 26.18 113.17 26 113.16 26.04 113.39 26.03 113.43 26.03 113.48 25.68 113.17 25.69 107.36 25.88 107.13 25.88"/><polygon class="cls-7" points="110.25 47.68 113.08 26.66 113.08 26.66 110.25 47.68 110.25 47.68"/><polygon class="cls-7" points="117.22 47.46 117.21 47.5 117.44 47.49 117.48 47.49 117.53 47.14 117.22 47.15 110.82 47.36 110.78 47.67 117.22 47.46"/><polygon class="cls-7" points="104.14 53.97 104.14 54.01 116.39 53.62 117.13 48.12 117.13 48.12 116.39 53.58 104.14 53.97"/><polygon class="cls-7" points="117.21 47.5 117.22 47.46 110.78 47.67 110.78 47.71 117.21 47.5"/><polygon class="cls-7" points="109.99 47.65 109.94 48 110.2 47.99 110.21 47.99 110.25 47.68 110.25 47.68 113.08 26.66 112.81 26.67 109.99 47.65"/><polygon class="cls-7" points="107.35 26.22 107.58 26.22 113.16 26.04 113.17 26 107.35 26.18 103.61 53.99 103.61 53.99 107.31 26.49 107.35 26.22"/><polygon class="cls-7" points="116.17 53.28 104.18 53.66 104.14 53.97 116.39 53.58 117.13 48.12 116.86 48.13 116.17 53.28"/><polyline class="cls-4" points="114.45 29.41 108.52 29.59 108.36 30.77 114.29 30.59 114.45 29.41"/><polyline class="cls-4" points="114.69 27.64 108.76 27.82 108.6 29 114.53 28.82 114.69 27.64"/><polyline class="cls-4" points="114.93 25.86 109 26.05 108.84 27.23 114.77 27.05 114.93 25.86"/><polyline class="cls-4" points="115.17 24.1 109.23 24.28 109.08 25.46 115.01 25.28 115.17 24.1"/><polyline class="cls-5" points="114.75 44.33 108.01 44.54 107.97 44.84 114.71 44.63 114.75 44.33"/><polyline class="cls-5" points="110.7 22.87 105.36 23.04 101.69 50.25 101.93 50.24 105.56 23.32 110.66 23.16 110.7 22.87"/><polyline class="cls-6" points="100.8 54.46 100.59 55.23 101.27 55.36 101.48 54.59 100.8 54.46"/><polyline class="cls-6" points="101 52.96 100.79 53.73 108.05 55.13 108.26 54.37 101 52.96"/><polyline class="cls-6" points="101.21 51.47 101 52.23 113.47 54.64 113.68 53.88 101.21 51.47"/><polyline class="cls-6" points="101.41 49.97 101.2 50.73 113.67 53.14 113.88 52.38 101.41 49.97"/><polyline class="cls-6" points="101.61 48.47 101.4 49.24 113.87 51.65 114.08 50.88 101.61 48.47"/><polyline class="cls-6" points="109.98 48.55 109.77 49.32 114.08 50.15 114.29 49.38 109.98 48.55"/><polyline class="cls-6" points="101.81 46.97 101.6 47.74 107.5 48.88 107.71 48.11 101.81 46.97"/><polyline class="cls-6" points="102.47 45.56 102.26 46.33 107.7 47.38 107.91 46.62 102.47 45.56"/><polyline class="cls-5" points="110.86 46.26 105.04 46.44 103.84 55.31 116.63 54.91 117.39 49.32 110.41 49.54 110.86 46.26"/><polyline class="cls-7" points="112.07 24.29 106.25 24.47 102.51 52.28 115.29 51.87 116.12 45.75 109.15 45.97 112.07 24.29"/><polyline class="cls-6" points="115.41 45.36 108.67 45.57 108.63 45.87 115.37 45.65 115.41 45.36"/><polyline class="cls-6" points="111.36 23.89 106.02 24.06 102.35 51.28 102.59 51.27 106.22 24.35 111.32 24.19 111.36 23.89"/><path class="cls-1" d="M134,45.72l3.28-8.08h0l1.09,8-4.42.13m7.28-15.95-5.8.18L124.25,55.36l5.63-.17,2-4.41,7.32-.22.74,4.33,5.66-.17-4.3-24.95"/><path class="cls-2" d="M132.56,43.83l3.27-8.08h.06l1.09,8-4.42.13m7.28-15.95-5.8.17L122.78,53.47l5.64-.17,2-4.42,7.32-.22.74,4.34,5.66-.17-4.3-24.95"/><polygon class="cls-7" points="136.51 35.83 137.63 44.02 132.88 44.16 132.75 44.48 137.83 44.33 136.67 35.82 136.51 35.83"/><polygon class="cls-7" points="140.06 28.53 140.01 28.21 134.55 28.38 123.55 53.23 123.89 53.22 134.75 28.69 140.06 28.53"/><polygon class="cls-7" points="139.19 52.76 138.51 48.74 138.36 48.74 139.05 52.76 139.19 52.76"/><polyline class="cls-4" points="143.01 30.96 134.01 31.24 133.87 32.3 142.87 32.03 143.01 30.96"/><polyline class="cls-4" points="142.79 29.37 134.76 29.62 134.62 30.68 142.65 30.44 142.79 29.37"/><polyline class="cls-4" points="142.36 27.79 135.42 28 135.27 29.07 142.21 28.86 142.36 27.79"/><polyline class="cls-4" points="142.14 26.2 136.28 26.38 136.14 27.45 142 27.27 142.14 26.2"/><polyline class="cls-5" points="138.01 25.09 132.51 25.25 121.5 50.13 121.8 50.12 132.69 25.51 138.06 25.35 138.01 25.09"/><polyline class="cls-5" points="136.47 45.59 136.33 45.59 137.03 49.66 137.16 49.66 136.47 45.59"/><polyline class="cls-5" points="134.62 32.67 134.48 32.68 135.6 40.89 130.87 41.03 130.76 41.3 135.78 41.15 134.62 32.67"/><polyline class="cls-6" points="121.14 53.25 120.95 53.94 126.14 54.95 126.33 54.25 121.14 53.25"/><polyline class="cls-6" points="121.74 51.98 121.55 52.67 126.73 53.67 126.92 52.97 121.74 51.98"/><polyline class="cls-6" points="136.23 53.38 136.03 54.07 139.35 54.71 139.54 54.01 136.23 53.38"/><polyline class="cls-6" points="122.34 50.7 122.15 51.39 127.33 52.39 127.52 51.7 122.34 50.7"/><polyline class="cls-6" points="136 51.94 135.8 52.63 141.81 53.79 142.01 53.1 136 51.94"/><polyline class="cls-6" points="122.94 49.42 122.75 50.12 127.93 51.11 128.12 50.42 122.94 49.42"/><polyline class="cls-6" points="135.76 50.5 135.57 51.2 141.38 52.31 141.57 51.62 135.76 50.5"/><polyline class="cls-6" points="123.33 48.11 123.14 48.8 132.26 50.56 132.45 49.86 123.33 48.11"/><polyline class="cls-6" points="126.08 47.25 125.89 47.94 141.33 50.92 141.53 50.22 126.08 47.25"/><polyline class="cls-6" points="132.33 47.06 132.14 47.75 140.94 49.45 141.13 48.76 132.33 47.06"/><polyline class="cls-6" points="138.57 46.87 138.38 47.56 140.76 48.02 140.95 47.33 138.57 46.87"/><polyline class="cls-5" points="143.43 47.38 126.55 47.89 123.31 55.2 128.95 55.03 130.94 50.62 138.26 50.4 139 54.73 144.66 54.56 143.43 47.38"/><path class="cls-7" d="M131.92,42.33l3.28-8.08h.05l1.09,8-4.42.13m7.28-15.95-5.8.17L122.15,52l5.64-.17,2-4.42,7.32-.22.74,4.34,5.66-.17-4.3-24.95"/><polyline class="cls-6" points="138.62 26.02 133.12 26.18 122.11 51.06 122.41 51.05 133.3 26.44 138.66 26.28 138.62 26.02"/><polyline class="cls-6" points="137.07 46.52 136.94 46.52 137.63 50.59 137.77 50.59 137.07 46.52"/><polyline class="cls-6" points="135.23 33.6 135.08 33.61 136.21 41.82 131.48 41.97 131.37 42.23 136.39 42.08 135.23 33.6"/><g class="cls-8"><polyline class="cls-1" points="176.16 28.71 170.55 28.83 168.48 44.16 168.43 44.16 160.22 29.04 154.61 29.16 151.23 54.23 156.84 54.12 158.91 38.75 158.97 38.75 167.17 53.9 172.78 53.78 176.16 28.71"/><polyline class="cls-2" points="174.6 26.81 168.99 26.93 166.92 42.26 166.87 42.26 158.66 27.14 153.05 27.26 149.67 52.33 155.28 52.22 157.35 36.85 157.41 36.85 165.61 52 171.22 51.88 174.6 26.81"/><polygon class="cls-7" points="169.38 26.98 174.99 26.86 174.99 26.9 175.21 26.89 175.25 26.89 175.29 26.58 174.99 26.58 169.38 26.7 169.16 26.7 169.13 26.95 167.17 41.51 167.37 41.88 169.38 26.98"/><polygon class="cls-7" points="158.11 38.02 165.78 52.2 165.86 52.33 165.9 52.33 158.12 37.95 158.11 38.02"/><polygon class="cls-7" points="153.22 27.04 153.19 27.28 149.81 52.35 149.77 52.67 150.03 52.66 150.03 52.66 150.06 52.38 150.06 52.38 153.44 27.31 159.05 27.2 159.07 27.23 159.27 27.23 159.37 27.23 159.27 27.05 159.2 26.91 159.05 26.92 153.44 27.03 153.22 27.04"/><polygon class="cls-7" points="157.74 36.91 155.67 52.27 150.58 52.37 150.57 52.41 155.67 52.3 157.71 37.18 157.74 36.94 157.82 36.94 157.8 36.9 157.74 36.91"/><polygon class="cls-7" points="166.34 52.05 166.37 52.08 171.61 51.97 174.91 27.46 174.91 27.46 171.61 51.94 166.34 52.05"/><polygon class="cls-7" points="171.39 51.66 166.2 51.77 166.34 52.05 171.61 51.94 174.91 27.46 174.66 27.46 171.39 51.66"/><polygon class="cls-7" points="153.44 27.35 153.66 27.34 159.07 27.23 159.05 27.2 153.44 27.31 150.06 52.38 150.06 52.38 153.41 27.59 153.44 27.35"/><polygon class="cls-7" points="158.02 36.94 158.12 36.93 158.02 36.76 157.95 36.62 157.8 36.63 157.74 36.63 157.52 36.63 157.49 36.87 155.45 51.99 150.62 52.09 150.58 52.37 155.67 52.27 157.74 36.91 157.8 36.9 157.82 36.94 157.96 36.94 158.02 36.94"/><polygon class="cls-7" points="169.35 27.26 169.38 27.02 169.6 27.01 174.99 26.9 174.99 26.86 169.38 26.98 167.37 41.88 167.37 41.89 169.35 27.26"/><polygon class="cls-7" points="167.11 42.59 167.16 42.59 159.12 27.79 159.07 27.79 167.04 42.46 167.11 42.59"/><polyline class="cls-4" points="176.18 29.95 170.45 30.07 170.31 31.13 176.03 31.01 176.18 29.95"/><polyline class="cls-4" points="163.58 30.21 154.65 30.4 154.51 31.46 163.44 31.28 163.58 30.21"/><polyline class="cls-4" points="176.39 28.35 170.67 28.47 170.52 29.54 176.25 29.42 176.39 28.35"/><polyline class="cls-4" points="162.65 28.64 154.87 28.8 154.73 29.87 162.51 29.7 162.65 28.64"/><polyline class="cls-4" points="176.61 26.76 170.88 26.88 170.74 27.94 176.46 27.82 176.61 26.76"/><polyline class="cls-4" points="161.95 27.06 155.09 27.21 154.94 28.27 161.81 28.13 161.95 27.06"/><polyline class="cls-4" points="176.82 25.16 171.1 25.28 170.95 26.34 176.68 26.23 176.82 25.16"/><polyline class="cls-4" points="161.02 25.49 155.3 25.61 155.16 26.68 160.88 26.56 161.02 25.49"/><polyline class="cls-5" points="156.76 24.34 151.49 24.45 148.18 48.99 148.41 48.99 151.68 24.72 156.9 24.61 156.76 24.34"/><polyline class="cls-5" points="156 33.78 155.94 33.78 164 48.66 164.06 48.66 156 33.78"/><polyline class="cls-5" points="172.58 24.02 167.43 24.12 165.36 39.45 165.02 39.46 165.16 39.72 165.56 39.71 167.62 24.38 172.55 24.28 172.58 24.02"/><polyline class="cls-6" points="147.44 52.17 147.25 52.86 150.76 53.52 150.95 52.84 147.44 52.17"/><polyline class="cls-6" points="147.63 50.82 147.43 51.51 153.13 52.59 153.33 51.9 147.63 50.82"/><polyline class="cls-6" points="162.72 52.29 162.52 52.98 163.84 53.23 164.03 52.54 162.72 52.29"/><polyline class="cls-6" points="147.81 49.47 147.61 50.16 153.31 51.24 153.51 50.55 147.81 49.47"/><polyline class="cls-6" points="162.02 50.77 161.83 51.46 168.84 52.79 169.04 52.1 162.02 50.77"/><polyline class="cls-6" points="147.99 48.12 147.79 48.81 153.5 49.89 153.69 49.2 147.99 48.12"/><polyline class="cls-6" points="161.33 49.26 161.13 49.95 169.02 51.44 169.22 50.75 161.33 49.26"/><polyline class="cls-6" points="148.17 46.77 147.98 47.46 153.68 48.54 153.87 47.85 148.17 46.77"/><polyline class="cls-6" points="160.41 47.7 160.22 48.39 169.21 50.09 169.4 49.4 160.41 47.7"/><polyline class="cls-6" points="148.36 45.42 148.16 46.11 153.86 47.19 154.06 46.5 148.36 45.42"/><polyline class="cls-6" points="159.72 46.18 159.52 46.87 169.39 48.74 169.59 48.05 159.72 46.18"/><polyline class="cls-6" points="152.05 44.73 151.85 45.42 154.04 45.84 154.24 45.15 152.05 44.73"/><polyline class="cls-6" points="158.81 44.63 158.61 45.31 169.57 47.39 169.77 46.7 158.81 44.63"/><polyline class="cls-6" points="165.13 44.44 164.93 45.13 169.75 46.04 169.95 45.35 165.13 44.44"/><polyline class="cls-5" points="156.99 45.47 151.38 45.59 150.3 53.58 155.91 53.47 156.99 45.47"/><polyline class="cls-5" points="172.93 45.14 161.65 45.37 165.92 53.26 171.85 53.13 172.93 45.14"/><polyline class="cls-7" points="173.92 25.31 168.31 25.43 166.24 40.76 166.18 40.76 157.97 25.64 152.37 25.76 148.99 50.83 154.59 50.71 156.67 35.35 156.72 35.35 164.93 50.5 170.54 50.38 173.92 25.31"/><polyline class="cls-6" points="157.4 25.28 152.13 25.39 148.83 49.93 149.06 49.92 152.33 25.65 157.55 25.54 157.4 25.28"/><polyline class="cls-6" points="156.64 34.71 156.59 34.71 164.65 49.6 164.7 49.6 156.64 34.71"/><polyline class="cls-6" points="173.23 24.95 168.08 25.05 166.01 40.38 165.66 40.39 165.81 40.65 166.2 40.65 168.27 25.32 173.19 25.21 173.23 24.95"/></g><path class="cls-1" d="M193,28.07c-6.38.25-11.49,5.93-12.61,14.31-1.1,8.12,2.49,13.45,8.72,13.21,3.31-.13,6.43-1.79,8.85-5.39,2.19-3.29,2.83-6.51,3.39-10.28l-10.21.41-.71,5.27,4.2-.17c-.61,3-2.52,4.56-4.75,4.65-3.39.13-4.68-3.87-4.14-7.87S188.58,34,192,33.86c2.08-.08,3.35,1.5,3.73,3.94l5.24-2.87c-1.05-4.75-3.88-7-7.95-6.86"/><path class="cls-2" d="M191.59,26.14c-6.39.25-11.49,5.93-12.62,14.32-1.09,8.11,2.5,13.44,8.73,13.2,3.31-.13,6.43-1.79,8.85-5.39,2.19-3.28,2.83-6.51,3.39-10.28l-10.21.41L189,43.67l4.2-.17c-.61,3-2.52,4.56-4.76,4.65-3.38.13-4.67-3.87-4.13-7.87s2.85-8.21,6.24-8.35c2.08-.08,3.35,1.5,3.73,3.94L199.54,33c-1-4.76-3.88-7-7.95-6.87"/><path class="cls-7" d="M190.93,32c-3.39.13-5.71,4.41-6.24,8.35a.88.88,0,0,0,0,.16,13.79,13.79,0,0,1,2.08-5.62A5.68,5.68,0,0,1,191.13,32a3.62,3.62,0,0,1,.57,0A3.89,3.89,0,0,0,190.93,32Z"/><path class="cls-7" d="M188.26,48.18a5.15,5.15,0,0,0,.56,0c2.08-.09,3.87-1.45,4.61-4h-.25a4.73,4.73,0,0,1-4.35,3.73,3.25,3.25,0,0,1-.63,0,3.17,3.17,0,0,1-2.3-1.49.54.54,0,0,0,.07.13A3.28,3.28,0,0,0,188.26,48.18Z"/><path class="cls-7" d="M188.06,53.71a9.47,9.47,0,0,1-1.52-.06h.09a9.68,9.68,0,0,0,1.63.08c3.44-.14,6.44-2,8.66-5.28s2.77-6.33,3.29-9.81h0c-.54,3.5-1.23,6.55-3.3,9.66C194.49,51.92,191.37,53.58,188.06,53.71Z"/><path class="cls-7" d="M195,35.83l4.79-2.61a.3.3,0,0,0,0-.1L195,35.73A.36.36,0,0,1,195,35.83Z"/><path class="cls-7" d="M189.38,43.72h0l.71-5.27L200.3,38v0h.23l.05-.33-.27,0-10.22.4h-.2l0,.24-.71,5.27-.05.33h.24Z"/><path class="cls-7" d="M189.85,43.7v0l3.73-.14v0Z"/><path class="cls-7" d="M180.68,50.3c-1.41-2.43-1.9-5.71-1.38-9.51a.15.15,0,0,1,0-.07c0-.07,0-.14,0-.22,1.13-8.38,6.23-14.06,12.62-14.31a8.62,8.62,0,0,1,1.7.08l.11,0a6.89,6.89,0,0,1,5.09,3.27A7,7,0,0,0,193.56,26,9.41,9.41,0,0,0,192,25.9c-6.55.26-11.71,6.12-12.85,14.57-.52,3.88,0,7.22,1.48,9.66Z"/><path class="cls-7" d="M193.78,33.94a6.44,6.44,0,0,1,.65,2l0,.34.13-.07A5.71,5.71,0,0,0,193.78,33.94Z"/><path class="cls-7" d="M196.73,48.14c-2.23,3.32-5.22,5.14-8.67,5.28a9.58,9.58,0,0,1-1.62-.07,7.35,7.35,0,0,1-5.37-3.41,1.09,1.09,0,0,0,.08.15,7.35,7.35,0,0,0,5.39,3.56,9.47,9.47,0,0,0,1.52.06c3.31-.13,6.43-1.79,8.85-5.39,2.07-3.11,2.76-6.16,3.3-9.66H200A22,22,0,0,1,196.73,48.14Z"/><path class="cls-7" d="M194.16,33.59a3.45,3.45,0,0,0-2.57-1.87,3.5,3.5,0,0,0-.65,0,5.73,5.73,0,0,0-4.38,2.86,13.91,13.91,0,0,0-2.1,5.75,9.81,9.81,0,0,0,.94,6.27,1.74,1.74,0,0,0,.11.18,10,10,0,0,1-.86-6.14.5.5,0,0,1,0-.12.88.88,0,0,1,0-.16c.53-3.94,2.85-8.22,6.24-8.35a3.89,3.89,0,0,1,.77.05h.08A3.35,3.35,0,0,1,194.16,33.59Z"/><path class="cls-7" d="M192.14,26.22a10.68,10.68,0,0,1,1.51.05,8.62,8.62,0,0,0-1.7-.08c-6.39.25-11.49,5.93-12.62,14.31,0,.08,0,.15,0,.22C180.46,32.3,185.62,26.48,192.14,26.22Z"/><path class="cls-7" d="M190.08,38.48h.2l10-.4v0l-10.21.41-.71,5.27h0l.67-5Z"/><path class="cls-7" d="M193.81,43.58l.07-.33h-.3l-3.69.15,0,.29,3.73-.15v0h.24Z"/><path class="cls-7" d="M189,48.23c2.18-.09,3.82-1.6,4.44-4.07h0c-.74,2.58-2.53,3.94-4.61,4a5.15,5.15,0,0,1-.56,0l.13,0A4.36,4.36,0,0,0,189,48.23Z"/><path class="cls-7" d="M198.46,29.91a10.78,10.78,0,0,1,1.16,3l-4.68,2.55.06.28,4.79-2.61A10.69,10.69,0,0,0,198.46,29.91Z"/><polyline class="cls-4" points="201.43 29.86 183.78 30.56 183.64 31.65 201.28 30.95 201.43 29.86"/><polyline class="cls-4" points="200.6 28.26 185.06 28.87 184.91 29.97 200.46 29.35 200.6 28.26"/><polyline class="cls-4" points="199.56 26.66 186.54 27.18 186.39 28.27 199.42 27.76 199.56 26.66"/><polyline class="cls-4" points="197.68 25.1 189.28 25.44 189.13 26.53 197.54 26.2 197.68 25.1"/><path class="cls-5" d="M192.1,40.36h-.23v0c-.6,2.93-2.51,4.81-5,4.91a3.58,3.58,0,0,1-3.2-1.63A3.63,3.63,0,0,0,187,45.56c2.48-.09,4.4-2,5-4.9l.07-.3"/><path class="cls-5" d="M192.14,30.25a6.14,6.14,0,0,1,.76,2.13l.11-.06a5.77,5.77,0,0,0-.87-2.07"/><path class="cls-5" d="M198.13,35.15l-9.79.39-.64,4.72h.21l.6-4.44,9.58-.38c0-.09,0-.19,0-.28"/><path class="cls-5" d="M190,23.29c-6.3.25-11.27,5.89-12.37,14-.52,3.89,0,7.19,1.58,9.54l.07.09c-1.48-2.34-2-5.57-1.48-9.37,1.1-8.15,6.07-13.79,12.37-14a6.77,6.77,0,0,1,6.25,3A6.78,6.78,0,0,0,190,23.29"/><polyline class="cls-6" points="181 53.64 180.81 54.35 186.42 55.45 186.61 54.74 181 53.64"/><polyline class="cls-6" points="178.83 51.78 178.63 52.5 189.26 54.58 189.45 53.87 178.83 51.78"/><polyline class="cls-6" points="177.86 50.17 177.67 50.88 191.1 53.52 191.29 52.8 177.86 50.17"/><polyline class="cls-6" points="177.29 48.63 177.1 49.34 192.54 52.37 192.73 51.66 177.29 48.63"/><polyline class="cls-6" points="186.95 49.1 186.76 49.81 193.58 51.15 193.77 50.44 186.95 49.1"/><polyline class="cls-6" points="176.92 47.13 176.73 47.84 184.35 49.34 184.54 48.63 176.92 47.13"/><polyline class="cls-6" points="189.19 48.11 189 48.82 194.41 49.88 194.6 49.17 189.19 48.11"/><polyline class="cls-6" points="182.27 46.75 182.08 47.47 182.78 47.6 182.97 46.89 182.27 46.75"/><polyline class="cls-6" points="190.23 46.89 190.03 47.6 195.25 48.62 195.44 47.91 190.23 46.89"/><polyline class="cls-6" points="194.37 46.28 194.18 46.99 195.88 47.32 196.07 46.61 194.37 46.28"/><path class="cls-5" d="M198.76,46.78l-5.61.22A4.77,4.77,0,0,1,189,49.92a3.69,3.69,0,0,1-3.64-2.61l-5.86.23c.73,4.67,3.55,7.63,7.73,7.88l2-.08A11.22,11.22,0,0,0,197,50a17.69,17.69,0,0,0,1.72-3.26"/><path class="cls-7" d="M191,24.61c-6.38.25-11.48,5.93-12.61,14.32-1.09,8.11,2.5,13.44,8.72,13.2,3.31-.13,6.43-1.79,8.85-5.39,2.2-3.29,2.84-6.51,3.4-10.28l-10.22.41-.71,5.27,4.2-.17c-.61,3-2.52,4.56-4.75,4.65-3.39.13-4.68-3.87-4.14-7.87s2.86-8.22,6.25-8.35c2.07-.08,3.35,1.5,3.72,3.94l5.25-2.87c-1.06-4.75-3.89-7-8-6.86"/><path class="cls-6" d="M192.68,41.31h-.23v0c-.6,2.93-2.51,4.81-5,4.91a3.59,3.59,0,0,1-3.19-1.63,3.62,3.62,0,0,0,3.37,1.89c2.48-.1,4.4-2,5-4.9l.07-.3"/><path class="cls-6" d="M192.72,31.19a6.27,6.27,0,0,1,.76,2.14l.11-.06a5.83,5.83,0,0,0-.87-2.08"/><path class="cls-6" d="M198.71,36.1l-9.79.39-.64,4.72h.21l.6-4.45,9.58-.38a2.51,2.51,0,0,1,0-.27"/><path class="cls-6" d="M190.57,24.24c-6.3.25-11.27,5.89-12.37,14-.52,3.9,0,7.2,1.58,9.54a.86.86,0,0,0,.07.1c-1.48-2.34-2-5.57-1.48-9.37,1.1-8.15,6.07-13.79,12.37-14A6.77,6.77,0,0,1,197,27.45a6.77,6.77,0,0,0-6.42-3.21"/><path class="cls-1" d="M78.93,8.88c-9.49,1-16.54,8.57-16.85,18.9-.3,9.85,4.72,11.44,12.37,12.95,2.62.51,7.41,1.26,7.3,5s-3.24,5.47-6.12,5.79c-4.21.47-7.78-1.48-10.77-4L59.26,58.7a24.83,24.83,0,0,0,16.46,3.95,22.83,22.83,0,0,0,13.59-6.29c3.87-3.86,5.16-9.19,5.31-14.25.26-8.23-4.72-11.25-11.25-12.6l-3.11-.66c-2.11-.51-5.41-1.29-5.32-4.26s3.15-4.58,5.41-4.84a10.93,10.93,0,0,1,8.06,2.47l5.21-10.81A27.83,27.83,0,0,0,78.93,8.88"/><path class="cls-2" d="M75.05,5.39C65.57,6.44,58.52,14,58.2,24.29c-.3,9.85,4.72,11.45,12.38,13,2.61.51,7.41,1.26,7.29,5s-3.23,5.47-6.12,5.8C67.54,48.48,64,46.52,61,44l-5.6,11.25a24.86,24.86,0,0,0,16.47,3.95,22.85,22.85,0,0,0,13.59-6.29c3.87-3.86,5.16-9.18,5.31-14.25C91,30.39,86,27.38,79.49,26l-3.1-.66c-2.12-.51-5.41-1.29-5.32-4.26s3.14-4.58,5.4-4.84a10.94,10.94,0,0,1,8.07,2.47L89.75,7.92a28,28,0,0,0-14.7-2.53"/><path class="cls-7" d="M85.75,18.47l4.67-9.69-.17-.07L85.6,18.36Z"/><path class="cls-7" d="M72.73,59.19a26.65,26.65,0,0,1-3.2.15h.27a25.93,25.93,0,0,0,3.41-.14,22.29,22.29,0,0,0,13.25-6.13c3.24-3.23,5-7.9,5.15-13.87,0-.11,0-.21,0-.32-.19,5-1.5,10.21-5.31,14A22.89,22.89,0,0,1,72.73,59.19Z"/><path class="cls-7" d="M77.35,16.29c-2.26.25-5.32,2-5.4,4.84a1.31,1.31,0,0,0,0,.28c.28-3.09,3.56-4.84,5.88-5.1a9.43,9.43,0,0,1,1.3-.06A9.65,9.65,0,0,0,77.35,16.29Z"/><path class="cls-7" d="M77.91,25.41l3.12.66c2.81.58,6.1,1.6,8.48,3.94-2.4-2.75-6-3.89-9-4.52l-3.12-.66a10.08,10.08,0,0,1-3.86-1.52C74.3,24.44,76,25,77.91,25.41Z"/><path class="cls-7" d="M59.08,24.66v-.35C59.4,14,66.45,6.47,75.93,5.41a26.58,26.58,0,0,1,3.81-.12H80a28,28,0,0,1,11.3,2.64l.12-.25-.49-.25A28.19,28.19,0,0,0,79.41,4.72a25.53,25.53,0,0,0-3.54.13A19.33,19.33,0,0,0,63.65,11,20.42,20.42,0,0,0,58.52,24.3c-.15,4.79.93,7.72,2.94,9.65-1.66-1.92-2.53-4.73-2.4-9.08C59.07,24.8,59.07,24.73,59.08,24.66Z"/><path class="cls-7" d="M56.42,55.34l-.16-.1L61.86,44l.15.13.21-.44.55.46c2.92,2.5,5.72,3.8,8.53,4A12,12,0,0,0,72.63,48c2.81-.31,5.83-2.11,6.1-5.49a2.87,2.87,0,0,0-1.09-2.15,2.85,2.85,0,0,1,.55,1.83c-.1,3.21-2.9,5-5.62,5.25a9.33,9.33,0,0,1-1.49.06c-2.93-.08-5.82-1.38-8.85-4l-.55-.47-.32.64L55.76,55l-.22.44.41.28.22.13.13-.27Z"/><path class="cls-7" d="M62,44.11,61.86,44l-5.6,11.26.16.1,5.48-11Z"/><path class="cls-7" d="M73.11,48.05c2.73-.3,5.53-2,5.63-5.25a2.17,2.17,0,0,0,0-.26c-.27,3.38-3.29,5.18-6.1,5.49a12,12,0,0,1-1.33.07h.33A9.16,9.16,0,0,0,73.11,48.05Z"/><path class="cls-7" d="M75.93,5.41C66.45,6.47,59.4,14,59.08,24.31v.35A20.31,20.31,0,0,1,64.2,11.59,19.28,19.28,0,0,1,76.41,5.43a25.79,25.79,0,0,1,3.33-.14A26.58,26.58,0,0,0,75.93,5.41Z"/><path class="cls-7" d="M71.94,36.79l-.38-.08c-4-.79-7.19-1.55-9.25-3.49,2,2.38,5.42,3.21,9.8,4.07l.38.08c1.81.35,4.42.85,6,2.25C77,37.77,74,37.18,71.94,36.79Z"/><path class="cls-7" d="M88.77,30.79c1.67,1.94,2.4,4.51,2.29,7.84-.18,6-1.91,10.64-5.14,13.87a22.26,22.26,0,0,1-13.26,6.13,24.36,24.36,0,0,1-15-3.2l-.09.19a24.34,24.34,0,0,0,12,3.72,26.65,26.65,0,0,0,3.2-.15A22.89,22.89,0,0,0,86.31,52.9c3.81-3.8,5.12-9,5.31-14C91.67,35.38,90.77,32.73,88.77,30.79Z"/><path class="cls-7" d="M85.21,17.89a11.44,11.44,0,0,0-6.41-2.22,9.54,9.54,0,0,0-1.51.06c-2.39.27-5.81,2.11-5.91,5.38a3.59,3.59,0,0,0,1.28,3,3.6,3.6,0,0,1-.73-2.38,2.64,2.64,0,0,1,0-.28,1.31,1.31,0,0,1,0-.28c.08-2.84,3.14-4.59,5.4-4.84a9.65,9.65,0,0,1,1.78,0,1.61,1.61,0,0,1,.22,0,11.43,11.43,0,0,1,6.25,2.11l4.65-9.65-.51-.23Z"/><polyline class="cls-4" points="91.3 11.36 63.67 14.44 63.6 16.6 91.23 13.52 91.3 11.36"/><polyline class="cls-4" points="92.91 7.95 65.27 11.03 65.21 13.19 92.84 10.11 92.91 7.95"/><polyline class="cls-4" points="94.51 4.54 67.88 7.51 67.82 9.67 94.45 6.7 94.51 4.54"/><polyline class="cls-4" points="89.08 1.92 72.5 3.77 72.44 5.93 89.02 4.08 89.08 1.92"/><path class="cls-5" d="M70.46.14A18.16,18.16,0,0,0,59,5.93a19.24,19.24,0,0,0-4.82,12.51c-.13,4.5.86,7.2,2.78,9-1.6-1.77-2.42-4.38-2.29-8.48A19.19,19.19,0,0,1,59.44,6.41,18.15,18.15,0,0,1,71,.63a27.78,27.78,0,0,1,13.44,2l.11-.22a27.63,27.63,0,0,0-14-2.29"/><path class="cls-5" d="M67.29,18.32c1.17,1.39,3.34,1.91,4.82,2.26l3.14.67a16.2,16.2,0,0,1,7.84,3.52c-1.79-1.91-4.53-3.21-8.33-4l-3.14-.67a10.67,10.67,0,0,1-4.33-1.78"/><path class="cls-5" d="M72.88,33.65a3.85,3.85,0,0,1,.92,2.72c-.12,3.89-3.52,6-6.64,6.39-3.57.4-7-.83-10.63-3.76L51.47,49.18c.18.12.37.23.56.34l5-10c3.58,2.92,7.06,4.15,10.63,3.75,3.11-.34,6.52-2.49,6.64-6.39a3.88,3.88,0,0,0-1.41-3.2"/><polyline class="cls-6" points="51.08 58.16 50.81 59.58 54.25 59.85 54.52 58.43 51.08 58.16"/><polyline class="cls-6" points="51.65 55.46 51.38 56.88 68.6 58.23 68.87 56.81 51.65 55.46"/><polyline class="cls-6" points="53.21 52.83 52.94 54.25 80.98 56.46 81.25 55.03 53.21 52.83"/><polyline class="cls-6" points="54.28 50.17 54.01 51.59 83.03 53.87 83.3 52.45 54.28 50.17"/><polyline class="cls-6" points="71.09 48.74 70.82 50.16 84.1 51.2 84.37 49.78 71.09 48.74"/><polyline class="cls-6" points="55.35 47.5 55.08 48.92 58.03 49.16 58.3 47.73 55.35 47.5"/><polyline class="cls-6" points="72.65 46.11 72.38 47.53 85.17 48.54 85.44 47.12 72.65 46.11"/><polyline class="cls-6" points="72.73 43.37 72.46 44.79 85.74 45.84 86.01 44.41 72.73 43.37"/><polyline class="cls-6" points="68.88 40.32 68.61 41.74 85.82 43.09 86.09 41.67 68.88 40.32"/><polyline class="cls-6" points="82.25 38.62 81.97 40.04 85.91 40.35 86.18 38.93 82.25 38.62"/><path class="cls-5" d="M92.29,39.36l-17.05,1.9c2.21.65,4.37,1.8,4.29,4.3-.11,3.58-3.23,5.48-6.12,5.8-4.21.47-7.78-1.49-10.77-4L57,58.57c.41.27.83.52,1.26.76l28.9-3.22C91,52.26,92.26,47,92.41,42a16.89,16.89,0,0,0-.12-2.62"/><path class="cls-7" d="M73.2,2.52c-9.49,1.06-16.54,8.57-16.85,18.9-.3,9.86,4.72,11.45,12.37,12.95,2.61.52,7.41,1.26,7.3,5s-3.23,5.48-6.12,5.8c-4.21.47-7.78-1.49-10.77-4l-5.6,11.25A24.89,24.89,0,0,0,70,56.3,22.9,22.9,0,0,0,83.58,50c3.87-3.86,5.16-9.18,5.31-14.25.25-8.23-4.72-11.24-11.25-12.6l-3.11-.66c-2.11-.51-5.41-1.28-5.32-4.25s3.15-4.59,5.41-4.84a10.92,10.92,0,0,1,8.06,2.46L87.89,5.05A28,28,0,0,0,73.2,2.52"/><path class="cls-6" d="M72.1,1.88A18.15,18.15,0,0,0,60.59,7.66a19.24,19.24,0,0,0-4.82,12.52c-.14,4.5.86,7.2,2.78,9-1.6-1.76-2.42-4.37-2.29-8.47A19.19,19.19,0,0,1,61.08,8.15,18.16,18.16,0,0,1,72.59,2.36,27.78,27.78,0,0,1,86,4.38l.11-.22a27.73,27.73,0,0,0-14-2.28"/><path class="cls-6" d="M68.93,20.06c1.17,1.39,3.34,1.9,4.81,2.26l3.15.66a16.29,16.29,0,0,1,7.84,3.53c-1.79-1.92-4.53-3.22-8.33-4l-3.14-.67a10.64,10.64,0,0,1-4.33-1.77"/><path class="cls-6" d="M74.52,35.39a3.87,3.87,0,0,1,.92,2.71c-.12,3.9-3.53,6-6.64,6.39-3.57.4-7-.82-10.63-3.75L53.11,50.92c.18.12.37.22.56.34l5-10c3.57,2.92,7.06,4.15,10.63,3.75,3.11-.35,6.52-2.49,6.64-6.39a3.87,3.87,0,0,0-1.41-3.2"/></g></g></svg>