<svg xmlns="http://www.w3.org/2000/svg" xmlns:xlink="http://www.w3.org/1999/xlink" viewBox="0 0 97.41 97.41"><defs><style>.cls-1{isolation:isolate;}.cls-2{fill:#20a9c2;}.cls-3{fill:#48434a;}.cls-4{fill:url(#radial-gradient);}.cls-5{fill:#f88011;}.cls-6{fill:#29242e;}.cls-7{fill:#736b76;}.cls-8{fill:#1f1d20;}.cls-9{fill:#928996;}.cls-10{fill:#a59aa9;opacity:0.61;}.cls-11{fill:#b8b8b8;}.cls-11,.cls-12{mix-blend-mode:multiply;}.cls-12{fill:#bdbbc3;}</style><radialGradient id="radial-gradient" cx="48.36" cy="49.17" r="26.93" gradientUnits="userSpaceOnUse"><stop offset="0" stop-color="#fff"/><stop offset="0.33" stop-color="#fcfcfc"/><stop offset="0.62" stop-color="#f1f1f1"/><stop offset="0.9" stop-color="#dfdfdf"/><stop offset="1" stop-color="#d6d6d6"/></radialGradient></defs><g class="cls-1"><g id="Слой_2" data-name="Слой 2"><g id="Layer_1" data-name="Layer 1"><path class="cls-2" d="M97.41,48.71A48.71,48.71,0,1,1,48.71,0,48.7,48.7,0,0,1,97.41,48.71Z"/><path class="cls-3" d="M79.09,49.16A30.73,30.73,0,1,1,48.36,18.44,30.73,30.73,0,0,1,79.09,49.16Z"/><path class="cls-4" d="M75.29,49.16A26.93,26.93,0,1,1,48.36,22.24,26.93,26.93,0,0,1,75.29,49.16Z"/><path class="cls-5" d="M48.37,24.74A24.41,24.41,0,0,0,26.83,37.65L31.25,40A19.41,19.41,0,1,1,57.52,66.28l2.36,4.42a24.43,24.43,0,0,0-11.51-46Z"/><rect class="cls-6" x="47.11" y="24.74" width="2.52" height="6.91"/><polygon class="cls-7" points="49.62 55.27 47.1 55.27 47.42 33.32 49.34 33.32 49.62 55.27"/><polygon class="cls-3" points="52.94 50.43 51.67 52.6 37.53 43.98 38.5 42.32 52.94 50.43"/><rect class="cls-6" x="47.11" y="66.57" width="2.52" height="7.02"/><rect class="cls-6" x="65.69" y="47.91" width="7.09" height="2.52"/><rect class="cls-6" x="23.94" y="47.91" width="7.16" height="2.52"/><rect class="cls-6" x="36.62" y="27.68" width="1.58" height="5.01" transform="translate(-10.09 22.77) rotate(-30.03)"/><rect class="cls-6" x="58.53" y="65.64" width="1.58" height="5.01" transform="translate(-26.11 38.74) rotate(-29.97)"/><rect class="cls-6" x="28.6" y="35.7" width="1.58" height="5.01" transform="translate(-18.4 44.57) rotate(-60.03)"/><rect class="cls-6" x="66.55" y="57.62" width="1.58" height="5.01" transform="translate(-18.4 88.39) rotate(-60)"/><rect class="cls-6" x="26.88" y="59.34" width="5.01" height="1.58" transform="translate(-26.11 22.72) rotate(-29.97)"/><rect class="cls-6" x="64.83" y="37.42" width="5.01" height="1.57" transform="translate(-10.08 38.72) rotate(-29.95)"/><rect class="cls-6" x="34.9" y="67.36" width="5.01" height="1.58" transform="translate(-40.31 66.45) rotate(-59.98)"/><rect class="cls-6" x="56.81" y="29.4" width="5.01" height="1.57" transform="translate(3.52 66.47) rotate(-60)"/><path class="cls-8" d="M50.66,49.16a2.3,2.3,0,1,1-2.3-2.29A2.3,2.3,0,0,1,50.66,49.16Z"/><path class="cls-9" d="M49.14,49.16a.78.78,0,1,1-.78-.77A.77.77,0,0,1,49.14,49.16Z"/><rect class="cls-10" x="44.3" y="58.19" width="8.13" height="2.51"/><path class="cls-11" d="M65,28A28.52,28.52,0,0,0,27.16,65.75,26.92,26.92,0,0,1,65,28Z"/><path class="cls-12" d="M97,54.7A48.7,48.7,0,0,1,53,97.21L27.52,71.73a30.72,30.72,0,0,0,45-41.54Z"/></g></g></g></svg>