<svg xmlns="http://www.w3.org/2000/svg" xmlns:xlink="http://www.w3.org/1999/xlink" viewBox="0 0 85.49 85.48"><defs><style>.cls-1{isolation:isolate;}.cls-2{fill:#0d99a8;}.cls-3{mix-blend-mode:multiply;fill:url(#linear-gradient);}.cls-4{fill:#284962;}.cls-5{fill:#d5ecfc;}.cls-6{fill:#fff;}.cls-7{fill:#d93d15;}.cls-8{fill:#f99a24;}.cls-9{fill:#14b0bf;}.cls-10{fill:#a6dae8;}</style><linearGradient id="linear-gradient" x1="37.05" y1="38.14" x2="71.68" y2="74.21" gradientUnits="userSpaceOnUse"><stop offset="0" stop-color="#0d99a8"/><stop offset="1" stop-color="#fff"/></linearGradient></defs><g class="cls-1"><g id="Слой_2" data-name="Слой 2"><g id="icons"><path class="cls-2" d="M85.49,42.74q0,1.35-.09,2.67A42.74,42.74,0,0,1,42.75,85.48h-.59A42.74,42.74,0,1,1,85.49,42.74Z"/><path class="cls-3" d="M85.4,45.41A42.74,42.74,0,0,1,42.75,85.48h-.59L15.52,58.81l7.17-1.16-3-2.57L66.22,26.22Z"/><path class="cls-4" d="M20.26,25.62h45a1.31,1.31,0,0,1,1.31,1.31v27a1.31,1.31,0,0,1-1.31,1.31h-45a1.32,1.32,0,0,1-1.32-1.32v-27A1.31,1.31,0,0,1,20.26,25.62Z"/><rect class="cls-5" x="22.01" y="27.71" width="41.47" height="25.42"/><path class="cls-4" d="M70,59c-.69.91-2.1.9-2.83.9H18.36a3.42,3.42,0,0,1-2.82-.9L14,57.14c-.36-.42-.37-.91,1.31-.91H70.16c1.68,0,1.68.5,1.31.91Z"/><rect class="cls-6" x="26.36" y="29.53" width="32.8" height="19.29"/><polygon class="cls-7" points="59.01 50.83 56.92 50.27 56.15 52.29 52.65 45.44 55.51 43.98 59.01 50.83"/><polygon class="cls-7" points="48.11 50.83 50.2 50.27 50.98 52.29 54.47 45.44 51.61 43.98 48.11 50.83"/><path class="cls-8" d="M57,45a3.5,3.5,0,1,1-3.49-3.49A3.49,3.49,0,0,1,57,45Z"/><path class="cls-7" d="M56.2,45.08a2.75,2.75,0,1,1-2.74-2.74A2.75,2.75,0,0,1,56.2,45.08Z"/><rect class="cls-9" x="29.29" y="31.71" width="26.91" height="2.74"/><rect class="cls-10" x="29.29" y="45" width="17.11" height="1.72"/><rect class="cls-10" x="29.29" y="35.77" width="26.91" height="0.47"/><rect class="cls-10" x="29.29" y="37.47" width="26.91" height="0.47"/><rect class="cls-10" x="29.29" y="39.18" width="26.91" height="0.47"/><rect class="cls-10" x="29.29" y="40.88" width="14.46" height="0.47"/><rect class="cls-10" x="29.29" y="42.58" width="14.46" height="0.47"/></g></g></g></svg>