<svg xmlns="http://www.w3.org/2000/svg" viewBox="0 0 97.41 97.41"><defs><style>.cls-1{isolation:isolate;}.cls-2{fill:#7e6b8b;}.cls-3{fill:#999;opacity:0.88;}.cls-4{fill:#3a3b4e;}.cls-5{fill:#75c4d2;}.cls-6{fill:#e5e5e5;}.cls-7{fill:#6c6d79;}.cls-8{fill:#8d999c;opacity:0.44;}.cls-16,.cls-17,.cls-8{mix-blend-mode:multiply;}.cls-10,.cls-11,.cls-9{fill:#fff;}.cls-10{opacity:0.67;}.cls-11{opacity:0.38;}.cls-12{fill:#ccc;}.cls-13{fill:#f2f2f2;}.cls-14{fill:#799f5f;}.cls-15{fill:#b3b3b3;}.cls-16{fill:#dfe4e4;}.cls-17{fill:#bdbbc3;}</style></defs><g class="cls-1"><g id="Слой_2" data-name="Слой 2"><g id="Layer_1" data-name="Layer 1"><path class="cls-2" d="M97.41,48.71A48.71,48.71,0,1,1,48.71,0,48.7,48.7,0,0,1,97.41,48.71Z"/><rect class="cls-3" x="37.98" y="61.89" width="16.71" height="7.69"/><path class="cls-4" d="M75.5,28.63V62.45a1,1,0,0,1-1.08,1H18.12a1,1,0,0,1-1.08-1V28.63a1,1,0,0,1,1.08-1h56.3A1,1,0,0,1,75.5,28.63Z"/><rect class="cls-5" x="19.85" y="30.66" width="52.85" height="29.76"/><rect class="cls-6" x="31.35" y="69.22" width="29.97" height="2.7"/><path class="cls-7" d="M47.09,61.89a.82.82,0,0,1-.82.82.82.82,0,0,1-.81-.82.81.81,0,0,1,.81-.81A.82.82,0,0,1,47.09,61.89Z"/><rect class="cls-8" x="37.98" y="63.46" width="16.71" height="3.76"/><rect class="cls-9" x="23.43" y="38.13" width="0.72" height="17.17"/><rect class="cls-9" x="23.43" y="54.44" width="35.04" height="0.86"/><rect class="cls-9" x="23.43" y="33.67" width="14.56" height="1.77"/><rect class="cls-9" x="40.21" y="33.67" width="9.21" height="1.77"/><rect class="cls-9" x="60.63" y="35.06" width="9.56" height="1.54"/><rect class="cls-10" x="60.63" y="37.71" width="9.56" height="0.66"/><rect class="cls-10" x="60.63" y="39.23" width="9.56" height="0.66"/><rect class="cls-10" x="60.63" y="40.75" width="9.56" height="0.66"/><rect class="cls-10" x="60.63" y="42.27" width="9.56" height="0.66"/><rect class="cls-10" x="60.63" y="43.79" width="9.56" height="0.66"/><rect class="cls-9" x="60.63" y="46.71" width="9.56" height="1.54"/><rect class="cls-10" x="60.63" y="49.36" width="9.56" height="0.66"/><rect class="cls-10" x="60.63" y="50.88" width="9.56" height="0.66"/><rect class="cls-10" x="60.63" y="52.4" width="9.56" height="0.66"/><rect class="cls-10" x="60.63" y="53.92" width="9.56" height="0.66"/><rect class="cls-10" x="60.63" y="55.44" width="9.56" height="0.66"/><rect class="cls-11" x="23.43" y="56.31" width="4.36" height="1.3"/><rect class="cls-11" x="33.65" y="56.31" width="4.36" height="1.3"/><rect class="cls-11" x="43.88" y="56.31" width="4.36" height="1.3"/><rect class="cls-11" x="54.11" y="56.31" width="4.36" height="1.3"/><polygon class="cls-9" points="25.2 53.85 24.59 53.18 27.72 50.33 30.06 51.65 32.96 49.11 34.03 49.9 36.85 46.85 39.38 49.15 41.05 48.33 41.69 49.01 45.35 44.63 47.36 45.77 51.24 42.8 52.73 44.93 53.88 44.21 54.15 44.69 57.31 40.1 58.06 40.61 54.07 46.39 53.56 45.48 52.49 46.15 51.04 44.09 47.43 46.85 45.56 45.79 41.73 50.37 40.85 49.44 39.23 50.23 36.91 48.12 34.14 51.1 33.01 50.27 30.17 52.75 27.85 51.43 25.2 53.85"/><rect class="cls-12" x="47.86" y="70.95" width="35.28" height="2.46"/><path class="cls-13" d="M83.13,71H47.86l2.77-6.67H80.37C81.48,67,82,68.28,83.13,71Z"/><path class="cls-14" d="M51.23,64.67l-2.32,5.9H82.09l-2.32-5.9Zm28.52,4c-1.36,0-2.31.51-2.13,1.13H53.37c.18-.62-.77-1.13-2.12-1.13L52,66.54c1.29,0,2.47-.51,2.65-1.13H76.33c.18.62,1.37,1.13,2.65,1.13Z"/><path class="cls-14" d="M68.88,67.62c.09,1-1.42,1.87-3.38,1.87s-3.47-.84-3.38-1.87,1.6-1.87,3.38-1.87S68.79,66.59,68.88,67.62Z"/><path class="cls-14" d="M58.36,67.62c-.08.42-.87.75-1.77.75s-1.54-.33-1.43-.75.9-.76,1.77-.76S58.43,67.2,58.36,67.62Z"/><path class="cls-14" d="M76.12,67.62c.11.42-.53.75-1.43.75S73,68,72.91,67.62s.56-.76,1.43-.76S76,67.2,76.12,67.62Z"/><path class="cls-9" d="M71.12,71H59.88c.37-2.81.56-4.22.93-7h9.38C70.56,66.73,70.75,68.14,71.12,71Z"/><rect class="cls-6" x="59.88" y="70.95" width="11.24" height="2.46"/><rect class="cls-15" x="47.86" y="68.5" width="35.28" height="2.46"/><path class="cls-13" d="M83.13,68.5H47.86l2.77-6.68H80.37C81.48,64.49,82,65.82,83.13,68.5Z"/><path class="cls-14" d="M51.23,62.21l-2.32,5.9H82.09l-2.32-5.9Zm28.52,4c-1.36,0-2.31.51-2.13,1.13H53.37c.18-.62-.77-1.13-2.12-1.13L52,64.08c1.29,0,2.47-.51,2.65-1.13H76.33c.18.62,1.37,1.13,2.65,1.13Z"/><path class="cls-14" d="M68.88,65.16C69,66.19,67.46,67,65.5,67s-3.47-.84-3.38-1.87,1.6-1.87,3.38-1.87S68.79,64.13,68.88,65.16Z"/><path class="cls-14" d="M58.36,65.16c-.08.42-.87.76-1.77.76s-1.54-.34-1.43-.76.9-.76,1.77-.76S58.43,64.74,58.36,65.16Z"/><path class="cls-14" d="M76.12,65.16c.11.42-.53.76-1.43.76s-1.7-.34-1.78-.76.56-.76,1.43-.76S76,64.74,76.12,65.16Z"/><path class="cls-9" d="M71.12,68.5H59.88c.37-2.82.56-4.23.93-7h9.38C70.56,64.27,70.75,65.68,71.12,68.5Z"/><rect class="cls-12" x="59.88" y="68.5" width="11.24" height="2.46"/><rect class="cls-12" x="64.12" y="49.62" width="2.46" height="35.28" transform="translate(-4.61 129.72) rotate(-87.58)"/><path class="cls-13" d="M83,66.78,47.78,65.29c1.22-2.62,1.83-3.93,3-6.55L80.54,60C81.53,62.71,82,64.06,83,66.78Z"/><path class="cls-14" d="M51.41,59.15c-1,2.32-1.54,3.48-2.56,5.8L82,66.34l-2.06-6Zm28.32,5.24c-1.35-.06-2.32.4-2.17,1l-24.23-1c.21-.62-.72-1.16-2.07-1.22.34-.85.51-1.28.86-2.13,1.28.05,2.48-.4,2.69-1L76.46,61c.16.63,1.32,1.18,2.6,1.24Z"/><path class="cls-14" d="M68.92,62.84c0,1-1.5,1.81-3.46,1.73s-3.43-1-3.29-2,1.68-1.8,3.45-1.72S68.88,61.81,68.92,62.84Z"/><path class="cls-14" d="M58.41,62.4c-.1.41-.9.72-1.8.68s-1.53-.4-1.4-.82.93-.71,1.8-.68S58.5,62,58.41,62.4Z"/><path class="cls-14" d="M76.15,63.15c.1.42-.56.73-1.46.69S73,63.43,73,63s.59-.73,1.46-.69S76.06,62.73,76.15,63.15Z"/><path class="cls-9" d="M71,66.27,59.79,65.8c.49-2.8.73-4.2,1.22-7l9.37.4C70.64,62,70.76,63.44,71,66.27Z"/><rect class="cls-6" x="64.12" y="61.64" width="2.46" height="11.24" transform="translate(-4.61 129.71) rotate(-87.58)"/><polygon class="cls-16" points="71.75 68.76 81.71 70.32 82.28 69.24 71.75 68.76"/><path class="cls-17" d="M97.38,50.16A48.7,48.7,0,0,1,51.55,97.32L17.4,63.16a1.1,1.1,0,0,0,.72.25H38v5.8H31.35V71.9H47.86v1.51H83.14V68.49h0L83,68.1,83,66.77h0L80.54,60l-5-.21V28.62a.84.84,0,0,0-.15-.49Z"/></g></g></g></svg>