<svg xmlns="http://www.w3.org/2000/svg" viewBox="0 0 97.42 97.41"><defs><style>.cls-1{isolation:isolate;}.cls-2{fill:#7e6b8b;}.cls-3{fill:#b7816f;}.cls-4{fill:#98929e;opacity:0.79;}.cls-17,.cls-4{mix-blend-mode:multiply;}.cls-5{fill:#f2ead7;}.cls-6{fill:#48434a;}.cls-7{fill:#a9b4b6;}.cls-8{fill:#cca69c;}.cls-9{fill:#8a706a;}.cls-10{fill:#f88011;}.cls-11{fill:#33aaab;}.cls-12{fill:#4378b2;}.cls-13{fill:#80bf1f;}.cls-14{fill:#f75a10;}.cls-15{fill:#b5dde2;}.cls-16{fill:#eb4e4e;}.cls-17{fill:#bdbbc3;}</style></defs><g class="cls-1"><g id="Слой_2" data-name="Слой 2"><g id="Layer_1" data-name="Layer 1"><path class="cls-2" d="M97.41,48.71A48.71,48.71,0,1,1,48.71,0,48.7,48.7,0,0,1,97.41,48.71Z"/><rect class="cls-3" x="19.81" y="27.27" width="60.12" height="44.58" rx="2.93"/><path class="cls-4" d="M79.93,34.55V68.92A2.94,2.94,0,0,1,77,71.86H27.16l-3.61-3.62h26V66.13h.72v2.11h26V30.89Z"/><rect class="cls-5" x="23.47" y="30.89" width="26.04" height="37.35"/><rect class="cls-5" x="50.23" y="30.89" width="26.04" height="37.35"/><path class="cls-6" d="M47.45,33.4a.7.7,0,1,1-.7-.69A.69.69,0,0,1,47.45,33.4Z"/><path class="cls-6" d="M53.67,33.4a.69.69,0,1,1-.69-.69A.69.69,0,0,1,53.67,33.4Z"/><path class="cls-7" d="M53.38,33.4a.39.39,0,0,1-.4.39H46.77a.39.39,0,0,1-.4-.39h0a.4.4,0,0,1,.4-.4H53a.4.4,0,0,1,.4.4Z"/><path class="cls-6" d="M47.45,38a.7.7,0,1,1-.7-.69A.69.69,0,0,1,47.45,38Z"/><path class="cls-6" d="M53.67,38a.69.69,0,1,1-.69-.69A.69.69,0,0,1,53.67,38Z"/><path class="cls-7" d="M53.38,38a.39.39,0,0,1-.4.39H46.77a.39.39,0,0,1-.4-.39h0a.4.4,0,0,1,.4-.4H53a.4.4,0,0,1,.4.4Z"/><path class="cls-6" d="M47.45,47.26a.7.7,0,1,1-.7-.69A.69.69,0,0,1,47.45,47.26Z"/><path class="cls-6" d="M53.67,47.26a.69.69,0,1,1-.69-.69A.69.69,0,0,1,53.67,47.26Z"/><path class="cls-7" d="M53.38,47.26a.39.39,0,0,1-.4.39H46.77a.39.39,0,0,1-.4-.39h0a.4.4,0,0,1,.4-.4H53a.4.4,0,0,1,.4.4Z"/><path class="cls-6" d="M47.45,51.88a.7.7,0,1,1-.7-.7A.7.7,0,0,1,47.45,51.88Z"/><path class="cls-6" d="M53.67,51.88a.69.69,0,0,1-1.38,0,.69.69,0,1,1,1.38,0Z"/><path class="cls-7" d="M53.38,51.88a.4.4,0,0,1-.4.39H46.77a.4.4,0,0,1-.4-.39h0a.4.4,0,0,1,.4-.4H53a.4.4,0,0,1,.4.4Z"/><path class="cls-6" d="M47.45,61.12a.7.7,0,1,1-.7-.7A.69.69,0,0,1,47.45,61.12Z"/><path class="cls-6" d="M53.67,61.12a.69.69,0,1,1-1.38,0,.69.69,0,1,1,1.38,0Z"/><path class="cls-7" d="M53.38,61.12a.39.39,0,0,1-.4.39H46.77a.39.39,0,0,1-.4-.39h0a.4.4,0,0,1,.4-.4H53a.4.4,0,0,1,.4.4Z"/><path class="cls-6" d="M47.45,65.73a.7.7,0,1,1-.7-.69A.7.7,0,0,1,47.45,65.73Z"/><path class="cls-6" d="M53.67,65.73A.69.69,0,1,1,53,65,.69.69,0,0,1,53.67,65.73Z"/><path class="cls-7" d="M53.38,65.74a.39.39,0,0,1-.4.39H46.77a.39.39,0,0,1-.4-.39h0a.4.4,0,0,1,.4-.4H53a.4.4,0,0,1,.4.4Z"/><rect class="cls-8" x="26.3" y="36.63" width="17.65" height="0.44"/><rect class="cls-8" x="26.3" y="39.3" width="17.65" height="0.44"/><rect class="cls-8" x="26.3" y="41.97" width="17.65" height="0.44"/><rect class="cls-8" x="26.3" y="44.63" width="17.65" height="0.44"/><rect class="cls-8" x="26.3" y="47.3" width="17.65" height="0.44"/><rect class="cls-8" x="26.3" y="54.08" width="17.65" height="0.44"/><rect class="cls-8" x="26.3" y="56.75" width="17.65" height="0.44"/><rect class="cls-8" x="26.3" y="59.42" width="17.65" height="0.44"/><rect class="cls-8" x="26.3" y="62.09" width="17.65" height="0.44"/><rect class="cls-8" x="26.3" y="64.75" width="17.65" height="0.44"/><rect class="cls-9" x="26.3" y="51.09" width="8.09" height="1.28"/><rect class="cls-9" x="26.3" y="33.94" width="8.09" height="1.28"/><rect class="cls-8" x="55.56" y="36.63" width="17.65" height="0.44"/><rect class="cls-8" x="55.56" y="39.3" width="17.65" height="0.44"/><rect class="cls-8" x="55.56" y="41.97" width="17.65" height="0.44"/><rect class="cls-8" x="55.56" y="44.63" width="17.65" height="0.44"/><rect class="cls-8" x="55.56" y="47.3" width="17.65" height="0.44"/><rect class="cls-8" x="55.56" y="54.08" width="17.65" height="0.44"/><rect class="cls-8" x="55.56" y="56.75" width="17.65" height="0.44"/><rect class="cls-8" x="55.56" y="59.42" width="17.65" height="0.44"/><rect class="cls-8" x="55.56" y="62.09" width="17.65" height="0.44"/><rect class="cls-8" x="55.56" y="64.75" width="17.65" height="0.44"/><rect class="cls-9" x="55.56" y="51.09" width="8.09" height="1.28"/><rect class="cls-9" x="55.56" y="33.94" width="8.09" height="1.28"/><path class="cls-10" d="M78.32,33.85v7.22c0,.33-.25.48-.59.58l-1.46.53v-9.3l1.46.38C78.12,33.34,78.32,33.52,78.32,33.85Z"/><path class="cls-11" d="M78.32,43.18V50.4c0,.33-.25.48-.59.58l-1.46.53v-9.3l1.46.38C78.12,42.67,78.32,42.85,78.32,43.18Z"/><path class="cls-12" d="M78.32,52.51v7.22c0,.33-.25.48-.59.58l-1.46.53v-9.3l1.46.38C78.12,52,78.32,52.18,78.32,52.51Z"/><path class="cls-13" d="M21.42,59.74V52.52c0-.33.26-.48.59-.59l1.46-.52v9.3L22,60.33C21.62,60.25,21.42,60.07,21.42,59.74Z"/><path class="cls-14" d="M21.42,50.41V43.19c0-.33.26-.48.59-.58l1.46-.53v9.3L22,51C21.62,50.92,21.42,50.74,21.42,50.41Z"/><path class="cls-15" d="M21.42,41.08V33.86c0-.33.26-.48.59-.58l1.46-.53v9.3L22,41.67C21.62,41.59,21.42,41.41,21.42,41.08Z"/><path class="cls-16" d="M63.43,55.19c.07-.11-.21-.09-.27,0a1,1,0,0,1-1.06.49c-.27,0-.28-.17-.42-.36a.61.61,0,0,0-.47-.24,1.1,1.1,0,0,0-.93.73,2.27,2.27,0,0,0-1.16.31c-.1-.27-.23-.54-.32-.82,0-.09-.21,0-.26,0a2.61,2.61,0,0,1-.78.7l0-.11c-.05-.1-.33,0-.28.08.13.27-.86.86-1,.82-.33-.12-.21-.68-.17-.92a7.68,7.68,0,0,1,.52-1.41c0-.1-.24-.06-.28,0-.26.6-.93,1.76-.4,2.37s1.11-.22,1.45-.67a.21.21,0,0,0,.11,0,2,2,0,0,0,.9-.64c.1.25.21.49.29.74,0,.09.18,0,.23,0A2,2,0,0,1,60.28,56c.08,0,.2,0,.23-.1.2-.52.82-.93,1-.16a.06.06,0,0,0,.06,0C62.4,55.92,62.92,55.93,63.43,55.19Z"/><path class="cls-16" d="M73.84,55.38a2.33,2.33,0,0,1-.31.13c-.17-.52-.64-.54-1.13-.41l-.12-.24c0-.07-.23,0-.27,0a3.61,3.61,0,0,1-1.71.8.47.47,0,0,0,.25-.13c.28-.27.2-1-.24-1.06a3,3,0,0,0-2.15.89c-.07.07.18,0,.21,0l.12-.05c-.17.81-1.69,1.23-2.33,1-.91-.38.07-1.79.57-2,.17-.09-.1-.08-.16,0-.73.38-1.72,2.22-.29,2.29.78,0,2.4-.35,2.51-1.31,0,0-.1,0-.15,0a5.06,5.06,0,0,1,.68-.4c.39-.19.79-.31,1.06.12.09.15.1.65-.14.7,0,0-.26.12-.12.12a3.09,3.09,0,0,0,1.94-.7c0,.06,0,.12.08.17s.16,0,.19,0c.65-.21.86,0,1,.5,0,.07.25,0,.27,0a1.61,1.61,0,0,1,.46-.26C74.17,55.33,73.91,55.34,73.84,55.38Z"/><path class="cls-16" d="M58.28,58.19c-.43.39-1.16.67-1.33,1.27,0,.09.25,0,.28,0,.13-.45.62-.71,1-1a14,14,0,0,1-.39,3c0,.09.26,0,.28,0a14.72,14.72,0,0,0,.41-3.16C58.54,58.08,58.32,58.15,58.28,58.19Z"/><path class="cls-16" d="M61.21,58.47a.55.55,0,0,0-.21-.28.88.88,0,0,0-.83-.11.17.17,0,0,0-.17,0c-.42.16-.73.65-.34,1a1.12,1.12,0,0,0,1.26,0c-.07.34-.12.69-.2,1a2.82,2.82,0,0,1-.28.75c-.24.4-.62.34-1,.15-.08,0-.34.07-.23.13,1.71.9,1.8-1.58,2.09-2.61C61.33,58.48,61.27,58.46,61.21,58.47ZM59.93,59a.4.4,0,0,1-.16-.36.29.29,0,0,1,.07-.19.21.21,0,0,0,.15,0,.67.67,0,0,1,.74-.07.36.36,0,0,1,.17.5A.79.79,0,0,1,59.93,59Z"/><path class="cls-16" d="M62.74,58.38s0,0,0,0a.35.35,0,0,0-.07.12c-.07.16.09.28.23.32a1.14,1.14,0,0,0,.94-.23c.24-.22.06-.48-.19-.58A.89.89,0,0,0,62.74,58.38Zm.89.28a.54.54,0,0,1-.57,0c-.23-.18.13-.42.28-.54a.43.43,0,0,1,.24.08A.25.25,0,0,1,63.63,58.66Z"/><path class="cls-16" d="M65,58.79a.7.7,0,0,0,.54-.58c0-.32-.24-.39-.5-.35-.05,0-.15,0-.17.09v0c-.25.09-.63.2-.66.5S64.76,58.83,65,58.79ZM65,58l.08-.05c.29.06.16.62-.1.7a.5.5,0,0,1-.29,0,.28.28,0,0,1-.21-.24C64.47,58.18,64.83,58.09,65,58Z"/><path class="cls-16" d="M65.67,59a9.79,9.79,0,0,0-3.14.41c-.19.07,0,.1.1.06a8.88,8.88,0,0,1,2.86-.35C65.54,59.1,65.81,59,65.67,59Z"/><path class="cls-16" d="M73.12,59.55a6.86,6.86,0,0,0-1.11,0c-.14,0-.53.26-.44-.1,0-.14-.23-.05-.28,0a6.57,6.57,0,0,1-.71.78,2.1,2.1,0,0,1,.06-.93c0-.13-.24-.07-.27,0a1.12,1.12,0,0,1-.9.51,6.28,6.28,0,0,1,.83-1.14c.12-.12-.16-.15-.24-.07a7.59,7.59,0,0,0-.93,1.26l-.16,0a7.22,7.22,0,0,0-1.49.49c-.3.15-1.45.85-.91,1.26s1.37-.17,1.73-.43A4.19,4.19,0,0,0,69.36,60l.52-.08a.86.86,0,0,0,.39-.13,1.2,1.2,0,0,0,.09.72c0,.1.2.06.26,0,.22-.23.45-.45.66-.68a.2.2,0,0,0,.21.08,2,2,0,0,0,.39-.13,2.73,2.73,0,0,1,1.14,0C73.14,59.74,73.31,59.56,73.12,59.55Zm-4.25.72a3.36,3.36,0,0,1-.92,1,1.68,1.68,0,0,1-1,.3c-.69,0,.26-.74.32-.79A4.27,4.27,0,0,1,69,60.05Z"/><path class="cls-17" d="M97.42,48.7A48.71,48.71,0,0,1,48.7,97.4l-1.62,0L20.88,71.18a2.88,2.88,0,0,0,1.86.67H77a2.94,2.94,0,0,0,2.94-2.94V30.2a2.92,2.92,0,0,0-.86-2.07L97.36,46.42C97.39,47.18,97.42,47.94,97.42,48.7Z"/></g></g></g></svg>