<svg xmlns="http://www.w3.org/2000/svg" xmlns:xlink="http://www.w3.org/1999/xlink" viewBox="0 0 85.48 85.48"><defs><style>.cls-1{isolation:isolate;}.cls-2{fill:#a4d8e6;}.cls-3{mix-blend-mode:multiply;fill:url(#linear-gradient);}.cls-4{fill:#14b0bf;}.cls-5{fill:#284962;}.cls-6{fill:#fff;}.cls-7{fill:#d93d15;}.cls-8{fill:#ffb700;}.cls-9{fill:#f99a24;}</style><linearGradient id="linear-gradient" x1="19.84" y1="20.35" x2="71.62" y2="74.27" gradientUnits="userSpaceOnUse"><stop offset="0" stop-color="#59b8d2"/><stop offset="1" stop-color="#fff"/></linearGradient></defs><g class="cls-1"><g id="Слой_2" data-name="Слой 2"><g id="icons"><path class="cls-2" d="M85.48,42.74c0,1.17,0,2.32-.14,3.47a42.73,42.73,0,0,1-42.6,39.27h0A42.74,42.74,0,1,1,85.48,42.74Z"/><path class="cls-3" d="M85.34,46.21a42.73,42.73,0,0,1-42.6,39.27h0L16.23,58.93l5.12-2.27L11.1,47.07l11.42-4.83,1.6-1.65,1-1,.7-.71-.37-3.37-1.25-1.58-6.66-5.67-.34-5.33,43-.24,1.9.32Z"/><path class="cls-4" d="M71.92,52.71l-1.18-.14c.11-.94.15-3.65-.92-4.87a1.87,1.87,0,0,0-1.46-.65c-2.88,0-4.43-.44-5.15-1.31a3,3,0,0,1-.34-2.62,3.63,3.63,0,0,0-.17-2.45C61.81,38.29,57,39,55.21,39.42l-.29-1.15c.3-.08,7.45-1.86,8.86,1.9A4.69,4.69,0,0,1,64,43.31c-.14.81-.2,1.33.08,1.67.46.54,1.89.84,4.26.88a3,3,0,0,1,2.33,1.06C72.35,48.79,71.94,52.55,71.92,52.71Z"/><rect class="cls-5" x="67.77" y="52.07" width="7.12" height="10.79" rx="2.37"/><path class="cls-6" d="M72.22,55.06c0,1-.4,1.74-.89,1.74s-.89-.78-.89-1.74.4-1.74.89-1.74S72.22,54.1,72.22,55.06Z"/><path class="cls-5" d="M20.16,28.17H17V22.7h3.15v.95h-2v1.2H20v.95H18.17v1.41h2Z"/><path class="cls-5" d="M20.84,26.58v-.93h2v.93Z"/><path class="cls-5" d="M23.77,28.17V22.7h1.16v4.51h2.22v1Z"/><path class="cls-5" d="M31.25,28.17H28.1V22.7h3.15v.95h-2v1.2h1.85v.95H29.26v1.41h2Z"/><path class="cls-5" d="M35.74,28.17l-.39-1.31h-2L33,28.17H31.71l1.93-5.5h1.42L37,28.17Zm-.67-2.28c-.37-1.18-.57-1.85-.62-2s-.08-.28-.1-.37c-.08.32-.32,1.11-.71,2.37Z"/><path class="cls-5" d="M38.84,26.07v2.1H37.68V22.7h1.6a2.75,2.75,0,0,1,1.65.4,1.46,1.46,0,0,1,.53,1.23,1.48,1.48,0,0,1-.26.86,1.78,1.78,0,0,1-.75.59c.82,1.23,1.35,2,1.6,2.39H40.77l-1.31-2.1Zm0-.95h.38a1.47,1.47,0,0,0,.81-.18.63.63,0,0,0,.26-.57.61.61,0,0,0-.27-.56,1.6,1.6,0,0,0-.82-.16h-.36Z"/><path class="cls-5" d="M47.6,28.17H46.12L43.74,24h0c0,.73.07,1.25.07,1.56v2.58h-1V22.7h1.47l2.37,4.09h0q-.06-1.07-.06-1.5V22.7H47.6Z"/><path class="cls-5" d="M49,28.17V22.7h1.16v5.47Z"/><path class="cls-5" d="M56.37,28.17H54.89L52.51,24h0c.05.73.07,1.25.07,1.56v2.58h-1V22.7H53l2.38,4.09h0q-.06-1.07-.06-1.5V22.7h1Z"/><path class="cls-5" d="M59.82,25.09H62v2.84a5.07,5.07,0,0,1-1,.24,6,6,0,0,1-1,.07,2.41,2.41,0,0,1-1.9-.73,3,3,0,0,1-.65-2.09,2.72,2.72,0,0,1,.76-2.06,2.83,2.83,0,0,1,2.1-.74A4.12,4.12,0,0,1,62,23l-.38.93a2.77,2.77,0,0,0-1.25-.3,1.52,1.52,0,0,0-1.2.51,1.92,1.92,0,0,0-.46,1.36,2.2,2.2,0,0,0,.37,1.36,1.27,1.27,0,0,0,1.06.47,3.81,3.81,0,0,0,.74-.08V26.06h-1Z"/><rect class="cls-7" x="22.16" y="29.62" width="38.54" height="6.09" rx="1.49"/><rect class="cls-8" x="56.78" y="29.62" width="1.05" height="6.09"/><rect class="cls-8" x="55.05" y="29.62" width="1.05" height="6.09"/><rect class="cls-8" x="26.41" y="29.62" width="1.05" height="6.09"/><rect class="cls-8" x="24.68" y="29.62" width="1.05" height="6.09"/><rect class="cls-8" x="32.38" y="31.48" width="18.1" height="2.37"/><rect class="cls-9" x="17.78" y="35.71" width="39.81" height="5.47" rx="1.49"/><rect class="cls-8" x="55.05" y="36.77" width="1.05" height="3.36"/><rect class="cls-8" x="53.06" y="36.77" width="1.05" height="3.36"/><rect class="cls-8" x="51.08" y="36.77" width="1.05" height="3.36"/><rect class="cls-8" x="24.16" y="36.77" width="1.05" height="3.36"/><rect class="cls-8" x="22.17" y="36.77" width="1.05" height="3.36"/><rect class="cls-8" x="20.19" y="36.77" width="1.05" height="3.36"/><path class="cls-8" d="M28.68,39.38V37.51H48.2v1.87Zm-.74.75H49V36.77h-21v3.36Z"/><rect class="cls-5" x="10.59" y="41.18" width="41.9" height="6.47" rx="1.49"/><rect class="cls-7" x="42.17" y="42.86" width="8.9" height="3.11"/><rect class="cls-7" x="27.93" y="42.86" width="8.9" height="3.11"/><rect class="cls-7" x="12.34" y="42.86" width="8.9" height="3.11"/><rect class="cls-8" x="22.16" y="47.65" width="40.53" height="8.33" rx="1.49"/><path class="cls-7" d="M61.2,56H59V47.65H61.2a1.49,1.49,0,0,1,1.49,1.49v5.35A1.49,1.49,0,0,1,61.2,56Z"/><path class="cls-7" d="M23,56h2.24V47.65H23a1.49,1.49,0,0,0-1.49,1.49v5.35A1.49,1.49,0,0,0,23,56Z"/><rect class="cls-7" x="26.94" y="49.29" width="30.36" height="5.03" rx="1.49"/><rect class="cls-8" x="53.06" y="50.32" width="1.99" height="2.98"/><rect class="cls-8" x="29.56" y="50.32" width="1.99" height="2.98"/><rect class="cls-4" x="15.77" y="55.98" width="38.34" height="3.48" rx="1.49"/><path class="cls-5" d="M50.19,59.46V56h2.43a1.49,1.49,0,0,1,1.49,1.49V58a1.49,1.49,0,0,1-1.49,1.49Z"/><path class="cls-5" d="M19.69,59.46V56H17.26a1.49,1.49,0,0,0-1.49,1.49V58a1.49,1.49,0,0,0,1.49,1.49Z"/><rect class="cls-5" x="43.83" y="57.03" width="5.36" height="1.49"/><rect class="cls-5" x="36.12" y="57.03" width="5.36" height="1.49"/><rect class="cls-5" x="28.41" y="57.03" width="5.36" height="1.49"/><rect class="cls-5" x="20.7" y="57.03" width="5.36" height="1.49"/></g></g></g></svg>