<svg xmlns="http://www.w3.org/2000/svg" viewBox="0 0 342.87 294.74"><defs><style>.cls-1{fill:#f5f5f5;}.cls-2{fill:#e0e0e0;}.cls-3{fill:#5ea3ff;}.cls-4{opacity:0.4;}.cls-5{fill:#b78876;}.cls-6{fill:#aa6550;}.cls-7{fill:#263238;}.cls-8{fill:#455a64;}.cls-9{fill:#fafafa;}.cls-10{opacity:0.2;}</style></defs><g id="Слой_2" data-name="Слой 2"><g id="Слой_1-2" data-name="Слой 1"><path class="cls-1" d="M338.58.59s-8.36-5.1-17.6,14.78-12.61,31.29-12.61,31.29-2.49,4.18-5.39,1.61-7-10-11.76-8.48-6.33,7.18-5.09,15.27,3.29,25.91,3.48,27.52-.65,4-2.91,2.52S271.24,70,265.12,76.64s1,28.62,1.78,31,.29,3.47-.85,4.12-5.14-4.37-9-8.11-9.11-7.38-12.31-3.25-3.68,20.83,13.15,47.31l8.6,11.76,14.57-1.34c31-4.76,43.26-16.1,44.26-21.23s-5.16-6.65-10.54-7.13-11.8-.21-12.06-1.49.24-2.31,2.55-3.34,23.54-10.11,24.53-19.1-18-9.91-20.57-10.67-1.33-2.94,0-3.85,16.11-11.1,23-15.49S342.3,66.71,340.3,62c-2-4.57-10.27-2.77-14.12-3.27s-2.33-5.12-2.33-5.12,6.37-10,15.25-30.07-.71-23-.71-23"/><path class="cls-2" d="M330.3,18.38s-.05.15-.17.43l-.52,1.25-2.06,4.75c-1.8,4.13-4.44,10.09-7.73,17.44C313.24,57,304,77.17,293.68,99.47S274,142,267.38,156.66L259.51,174l-2.14,4.72c-.25.52-.44.93-.57,1.22l-.21.41a2.23,2.23,0,0,1,.16-.43c.13-.3.3-.71.52-1.24.48-1.11,1.18-2.71,2.06-4.76,1.8-4.13,4.44-10.08,7.73-17.43,6.58-14.7,15.84-34.92,26.14-57.23s19.61-42.51,26.27-57.17c3.32-7.31,6-13.24,7.87-17.36L329.49,20c.24-.53.43-.93.57-1.23A2.53,2.53,0,0,1,330.3,18.38Z"/><path class="cls-2" d="M288,109.84a4.83,4.83,0,0,1,1.08-.09l2.92-.1c2.46-.09,5.87-.22,9.62-.51s7.14-.63,9.6-.91l2.9-.33a3.88,3.88,0,0,1,1.08-.06,5.85,5.85,0,0,1-1,.25c-.68.13-1.67.3-2.89.48-2.44.37-5.84.79-9.6,1.07s-7.18.36-9.66.35c-1.23,0-2.23,0-2.92,0A4.76,4.76,0,0,1,288,109.84Z"/><path class="cls-2" d="M274.9,88.2a3.92,3.92,0,0,1,.6.79c.36.52.88,1.29,1.5,2.25,1.25,1.91,2.94,4.57,4.78,7.52s3.49,5.64,4.66,7.6c.59,1,1.05,1.78,1.36,2.34a3.91,3.91,0,0,1,.45.89,3.28,3.28,0,0,1-.61-.79c-.36-.53-.87-1.29-1.5-2.25-1.24-1.91-2.93-4.57-4.78-7.53s-3.49-5.64-4.66-7.6c-.58-1-1-1.78-1.36-2.33A3.88,3.88,0,0,1,274.9,88.2Z"/><path class="cls-2" d="M255.8,115.86a6.33,6.33,0,0,1,.77,1l1.93,2.88c1.6,2.44,3.8,5.83,6.2,9.59s4.55,7.19,6.08,9.68l1.8,3a7.51,7.51,0,0,1,.6,1.12,5.67,5.67,0,0,1-.77-1l-1.92-2.88c-1.61-2.45-3.81-5.84-6.21-9.6s-4.54-7.19-6.08-9.68c-.72-1.18-1.32-2.18-1.79-3A5.47,5.47,0,0,1,255.8,115.86Z"/><path class="cls-2" d="M273,142.35a6.08,6.08,0,0,1,1.35-.16l3.7-.26c3.12-.22,7.44-.54,12.19-1s9-1,12.15-1.43L306,139a7.64,7.64,0,0,1,1.36-.12,7.77,7.77,0,0,1-1.33.31c-.86.17-2.11.39-3.65.64-3.1.51-7.39,1.11-12.15,1.59s-9.09.75-12.22.88c-1.57.06-2.83.1-3.71.1A7.7,7.7,0,0,1,273,142.35Z"/><g id="freepik--character-2--inject-2"><rect class="cls-3" x="27" y="75.06" width="252.17" height="219.68" rx="38.79"/><g class="cls-4"><rect x="27" y="75.06" width="252.17" height="219.68" rx="38.79"/></g><polygon class="cls-3" points="279.1 151.64 316.87 151.64 278.25 190.27 279.1 151.64"/><g class="cls-4"><polygon points="279.1 151.64 316.87 151.64 278.25 190.27 279.1 151.64"/></g><path class="cls-5" d="M21,175.39l-15.83-18C.85,153.11-.62,151.05.24,150.3c1.14-1,.65-.67,9.54,6,0,0-12.6-9.63-8.23-9.69.77,0,2.91,1.24,5.2,2.74-3.12-2.65-4-4.44-3.39-5.29,1-1.48,8.72,3.87,12.27,6.44-2.9-2.16-8.43-6.35-9.4-7.67-1.34-1.8,1.37-1.65,3.57-.9,2.47.84,16.12,7.81,20.16,9.61a2.6,2.6,0,0,0,3.57-.91c.07-.11.13-.24.19-.36,1.49-6.26,6-10.33,7.72-10.86s3.05,1.67,1.82,3.27a23.4,23.4,0,0,0-2.66,6,15.14,15.14,0,0,0-.81,5.13c0,2,.14,3.73.27,5.18l14.47,19.85-24.2,14Z"/><path class="cls-6" d="M15.3,159.1c-.16.22-3-1.71-6.28-4.32s-5.84-4.91-5.65-5.12,3,1.73,6.28,4.32S15.44,158.87,15.3,159.1Z"/><path class="cls-6" d="M18.36,155.94c-.16.23-3.27-1.67-6.95-4.23S4.87,146.88,5,146.66s3.27,1.66,7,4.22S18.52,155.71,18.36,155.94Z"/><path class="cls-6" d="M20.6,152.58c-.16.23-3.14-1.51-6.65-3.89S7.72,144.2,7.87,144s3.13,1.51,6.65,3.89S20.75,152.35,20.6,152.58Z"/><path class="cls-5" d="M41.41,161.66,99.09,234.8,85.88,265.55s-15.82-3.5-20.62-10.16-44.3-80-44.3-80Z"/><path class="cls-7" d="M187.83,59.34c4.15,3.6,4.14,9.94,3.66,15.41s-.85,11.7,2.94,15.68c3.13,3.28,8.8,4.71,9.52,9.18a5.15,5.15,0,0,1-8.51,4.67c1.22,3.53.38,7.94-2.68,10.08s-8.19.82-9.14-2.79a4.53,4.53,0,0,1-8.78,2.26,4.76,4.76,0,0,1-.11-.64"/><path class="cls-7" d="M128.4,96.26a5.47,5.47,0,0,1-10.1-4.21h0c1-2.08,3.2-3.58,3.42-5.86.26-2.75-2.55-4.72-5-5.92s-5.41-2.76-5.68-5.52,2.12-4.73,4.11-6.51,4-4.54,2.73-6.91c-.63-1.22-1.94-1.91-2.79-3-1.87-2.38-.89-6.17,1.5-8s5.69-2.12,8.67-1.59,5.78,1.77,8.68,2.64a36.27,36.27,0,0,0,28.84-3.78"/><path class="cls-5" d="M146.11,160.75a20.09,20.09,0,0,0,23.59-15.4l14.19-65.06a28.89,28.89,0,0,0-21.48-34.73l-.79-.17-1.48-.22a29,29,0,0,0-32.55,22.25c-3.16,13.73-6.47,28.94-7.47,36.41-2.07,15.47,13,20.13,13,20.13l-2.71,13A20.07,20.07,0,0,0,146,160.7l.1,0Z"/><path class="cls-7" d="M130.37,77.66a2.24,2.24,0,0,0,1.8,2.54,2.14,2.14,0,0,0,2.55-1.61v0A2.22,2.22,0,0,0,132.94,76a2.14,2.14,0,0,0-2.57,1.61Z"/><path class="cls-7" d="M129.8,75.46c.23.33,2.08-.67,4.46-.31s3.93,1.79,4.23,1.54c.15-.11-.06-.67-.73-1.33a6.07,6.07,0,0,0-3.34-1.59,5.82,5.82,0,0,0-3.6.6C130,74.83,129.69,75.31,129.8,75.46Z"/><path class="cls-7" d="M153.56,81.46a2.23,2.23,0,0,0,1.8,2.54,2.13,2.13,0,0,0,2.54-1.61l0,0a2.23,2.23,0,0,0-1.8-2.53,2.12,2.12,0,0,0-2.55,1.58A.15.15,0,0,0,153.56,81.46Z"/><path class="cls-7" d="M153.06,79.32c.23.32,2.08-.67,4.45-.31s3.94,1.79,4.24,1.54c.14-.11-.06-.67-.74-1.33a6.07,6.07,0,0,0-3.34-1.59,5.82,5.82,0,0,0-3.6.6C153.3,78.66,152.94,79.17,153.06,79.32Z"/><path class="cls-7" d="M141.87,95.66a15.94,15.94,0,0,0-3.75-1.26c-.6-.15-1.15-.36-1.19-.79a3.1,3.1,0,0,1,.66-1.73q1.18-2.07,2.47-4.35c3.45-6.21,6-11.34,5.79-11.48s-3.25,4.78-6.7,11l-2.4,4.38a3.55,3.55,0,0,0-.66,2.34,1.55,1.55,0,0,0,.87,1,4.79,4.79,0,0,0,1,.29A16.09,16.09,0,0,0,141.87,95.66Z"/><path class="cls-7" d="M153.8,69.93c.14.68,2.56.72,5.29,1.46s4.87,1.83,5.33,1.31c.2-.25-.1-.92-.91-1.67a9.48,9.48,0,0,0-8.09-2.11C154.3,69.18,153.75,69.66,153.8,69.93Z"/><path class="cls-7" d="M131.68,68.72c.34.6,2,.28,4,.54s3.58.9,4,.39c.21-.25,0-.83-.62-1.45a5.85,5.85,0,0,0-6.5-.74C131.84,67.91,131.53,68.43,131.68,68.72Z"/><path class="cls-7" d="M169.61,60.9l.07.08A12.31,12.31,0,0,1,173,69.5v.31c0,4.5-.81,9-.8,13.45s.87,9.19,3.68,12.69c1.15,1.45,3.39,2.65,4.7,1.35a3.91,3.91,0,0,0,.85-1.94c2.38-10.51,6.66-19.51,8.27-30.63a9.48,9.48,0,0,0-2.77-8.2c-2.08-2-4.67-4.16-7.44-3.31s-6.82,5.2-9.13,7"/><path class="cls-5" d="M177.66,86.51c.28-.08,11.07-1.59,9.18,8.92s-12,6.45-12,6.14S177.66,86.51,177.66,86.51Z"/><path class="cls-6" d="M178.76,98.17a3.29,3.29,0,0,0,.44.35,1.93,1.93,0,0,0,1.37.28c1.18-.21,2.43-1.8,2.82-3.69a6.2,6.2,0,0,0,0-2.71,2.17,2.17,0,0,0-1.13-1.65.92.92,0,0,0-1.17.31c-.19.26-.16.49-.22.49s-.19-.21,0-.63a1.11,1.11,0,0,1,.53-.58,1.39,1.39,0,0,1,1.06-.09,2.64,2.64,0,0,1,1.62,2,6.47,6.47,0,0,1,.11,3c-.45,2.11-1.89,3.89-3.48,4.06a2,2,0,0,1-1.63-.58C178.73,98.42,178.72,98.18,178.76,98.17Z"/><path class="cls-7" d="M179.65,54.91c3.22-3.85-3-10.95-8-13.36s-12.2-.87-17.64.09c-3.43.61-6.91,1.65-10.33,1A23.38,23.38,0,0,1,137.24,40a17.22,17.22,0,0,0-6.54-2.29,6.41,6.41,0,0,0-6.07,2.71c-1.19,2-.36,5.13,1.88,5.78a5.24,5.24,0,1,0-2.79,9.4c-1.33-1.36-3.91.19-4,2.09s1.41,3.51,3,4.52c4.11,2.58,9.33,2.71,14.11,1.85s9.36-2.64,14.12-3.62,12.75-2.84,17.05-.57c3.16,1.66,4.9,6,6.91,5.41a6.56,6.56,0,0,0,4-4.26,19.32,19.32,0,0,0,.67-6"/><path class="cls-8" d="M200.22,103.66a1.92,1.92,0,0,0,.55-.24,3.26,3.26,0,0,0,1.14-1.3,4.7,4.7,0,0,0,.34-2.72,5.49,5.49,0,0,0-1.88-3.08,13.49,13.49,0,0,0-3.79-2.21A24.78,24.78,0,0,1,192.15,92a8.88,8.88,0,0,1-3.21-4.17,14.53,14.53,0,0,1-.93-5.68c.1-4,1.21-7.75,1.48-11.28s-.18-6.84-1.68-9.13a8.43,8.43,0,0,0-5-3.75,5.82,5.82,0,0,0-1.71-.17,2,2,0,0,0-.59.09,8.62,8.62,0,0,1,2.25.28,8.42,8.42,0,0,1,4.72,3.75c1.39,2.22,1.87,5.44,1.52,8.89s-1.42,7.2-1.54,11.31a14.81,14.81,0,0,0,1,5.88,9.23,9.23,0,0,0,3.43,4.39,25,25,0,0,0,4.53,2.14,13.58,13.58,0,0,1,3.71,2.08A5.27,5.27,0,0,1,202,99.46a4.44,4.44,0,0,1-.24,2.57A3.51,3.51,0,0,1,200.22,103.66Z"/><path class="cls-8" d="M126.17,45.9a1.88,1.88,0,0,0-.46-.25,3.5,3.5,0,0,0-.58-.23,4.4,4.4,0,0,0-.85-.21,6.28,6.28,0,0,0-5.3,1.62h0a8.44,8.44,0,0,0-1.88,6.26A10.41,10.41,0,0,0,121,60.22a16.16,16.16,0,0,0,8.74,3.51,35.84,35.84,0,0,0,10.38-.63,47.21,47.21,0,0,0,15.3-5.92,45.54,45.54,0,0,1,6.32-3.27,16.66,16.66,0,0,1,6-1.23,17.86,17.86,0,0,1,8.62,2,29.13,29.13,0,0,1,2.79,1.77,12.46,12.46,0,0,0-2.69-2,17.57,17.57,0,0,0-8.73-2.23,17.08,17.08,0,0,0-6.16,1.19,46.34,46.34,0,0,0-6.39,3.27A47.47,47.47,0,0,1,140,62.49a35.52,35.52,0,0,1-10.23.65,15.78,15.78,0,0,1-8.49-3.36A10,10,0,0,1,117.5,53a8.11,8.11,0,0,1,1.72-6h0a6.17,6.17,0,0,1,5.06-1.67A10.91,10.91,0,0,1,126.17,45.9Z"/><path class="cls-8" d="M132,37.15a5.79,5.79,0,0,0,.37,2.36,9.91,9.91,0,0,0,4.14,5,12.37,12.37,0,0,0,4.19,1.74,18.14,18.14,0,0,0,5.2.27c3.67-.27,7.51-1.53,11.54-2.57s8.06-1.59,11.54-.66a15,15,0,0,1,7.84,5.09,15.67,15.67,0,0,1,3,5.64c.4,1.47.45,2.33.52,2.32,0-.21,0-.42,0-.62a14.51,14.51,0,0,0-.29-1.75,15.11,15.11,0,0,0-2.91-5.83,15.31,15.31,0,0,0-8-5.33c-3.6-1-7.74-.43-11.79.62s-7.86,2.31-11.45,2.6a17.94,17.94,0,0,1-5.07-.21,12.68,12.68,0,0,1-4.08-1.62,10,10,0,0,1-4.14-4.74A13.57,13.57,0,0,1,132,37.15Z"/><path class="cls-6" d="M137.13,103.51a11.21,11.21,0,0,0,.81,3,3.66,3.66,0,0,0,2.25,2,3.31,3.31,0,0,0,3-.91,5.37,5.37,0,0,0,1.41-2.94c.16-1,0-2.25-1-2.57a2.56,2.56,0,0,0-1.23,0l-5.54,1"/><path class="cls-7" d="M138.1,107.71a7.86,7.86,0,0,0,2.76.52,4,4,0,0,0,2.58-1.18,4.22,4.22,0,0,0,1.11-3.23,3.75,3.75,0,0,0-.2-.88c-.13-.27-.09-.25-.32-.28a3.49,3.49,0,0,0-.89,0l-.93.07c-1.2.09-2.28.16-3.19.21a9.74,9.74,0,0,1-3-.06,9.93,9.93,0,0,1,2.91-.6c.9-.13,2-.26,3.17-.4l.92-.1a8.26,8.26,0,0,1,1-.09,1.16,1.16,0,0,1,.73.26,1.41,1.41,0,0,1,.4.61,3.89,3.89,0,0,1,.26,1.12,4.92,4.92,0,0,1-1.42,3.93,4.52,4.52,0,0,1-3.17,1.23,4.17,4.17,0,0,1-2.18-.61C138.3,108,138.07,107.75,138.1,107.71Z"/><path class="cls-6" d="M133.14,124s10.08,3.82,19.89,1c0,0-7.4,6.21-20.9,3.83Z"/><path class="cls-9" d="M148.52,267.33a12,12,0,0,1-1.38-1.06c-.43-.35-1-.78-1.61-1.24s-1.35-1-2.2-1.55-1.73-1.15-2.76-1.72-2.12-1.17-3.29-1.77A51.12,51.12,0,0,0,121,255.11c-1.31-.14-2.55-.3-3.72-.33s-2.26-.08-3.25-.07-1.9.06-2.69.09-1.47.09-2,.15a12.68,12.68,0,0,1-1.73.12,12.27,12.27,0,0,1,1.71-.32,16.55,16.55,0,0,1,2-.24c.79-.06,1.69-.17,2.7-.17s2.1-.06,3.28,0,2.44.16,3.76.28a48.91,48.91,0,0,1,16.46,4.93c1.17.62,2.3,1.19,3.29,1.83s1.93,1.21,2.75,1.79,1.54,1.14,2.17,1.62,1.15.94,1.56,1.32A11.25,11.25,0,0,1,148.52,267.33Z"/><path class="cls-3" d="M89.75,216,98,180.44c3.14-13.36,6.86-26.2,13.11-27.72v4.13l-2.68,101.51s-16.71,19-38,8.46c-6.66-3.31-18.81-26.56-18.81-26.56S23.3,189.82,24.48,187.53,42.93,163,44.69,161.87Z"/><path class="cls-3" d="M174.13,142.66c16.3,3.12,34.65,12.63,43.1,37,3.08,8.9,25.52,74.51,25.52,74.51l-38.27-.8-6.18-13.51,3,21.95,2.59,31.3-96.64,1.63.68-47.16.93-93.8s1.08-1.42,17.75-10.61C137,137.46,174.13,142.66,174.13,142.66Z"/><g class="cls-10"><path d="M183.77,205.4c1.59,19.8,3.41,25.92,5,45.72a17.24,17.24,0,0,0,1,5.5,6,6,0,0,0,4,3.65c2.82.57,6.48,2.61,7.27-.15l-2.67-19.07a37.76,37.76,0,0,0-2.64-8.05c-5.93-13.17-8.12-13.94-12-27.6"/></g><path class="cls-3" d="M126.6,153.32l.32-2.06L130,131.5a2.28,2.28,0,0,1,2.46-1.94l38.05,3.18a4.37,4.37,0,0,1,4,4.68l-.85,11.48-11.88,15.5-17.11,2.67"/><path class="cls-7" d="M107.49,190.47c.15,0,.26,15.48.26,34.57s-.11,34.57-.26,34.57-.26-15.48-.26-34.57S107.35,190.47,107.49,190.47Z"/><path class="cls-7" d="M205.3,256.55s0-.07-.12-.22a4,4,0,0,1-.32-.68L203.7,253l-4.17-9.71L185.94,211.2c-2.64-6.28-5.15-12.26-7.43-17.71a33.08,33.08,0,0,1-2.46-8,42.62,42.62,0,0,1-.66-7.3,29.19,29.19,0,0,1,1.52-10.45l.31-.83.35-.7a5.26,5.26,0,0,1,.6-1.06l.42-.62a1,1,0,0,1,.16-.2,19.44,19.44,0,0,0-1.65,3.48,29.87,29.87,0,0,0-1.34,10.38A38,38,0,0,0,179,193.34L186.41,211l13.46,32.17,4,9.77,1.07,2.67.27.7Z"/><path class="cls-9" d="M186,146.15c-.35.35-.73.69-1.11,1a18,18,0,0,1-3.65,2.13,27.62,27.62,0,0,1-6.42,1.8,81.41,81.41,0,0,1-8.8.87c-3.28.14-6.86.08-10.7.15a49.31,49.31,0,0,0-12.1,1.48,22.17,22.17,0,0,0-11.38,6.71,15.65,15.65,0,0,0-3.16,6.24,13.26,13.26,0,0,0,.12,7.15,11.11,11.11,0,0,0,1.67,3.2,8.26,8.26,0,0,0,2.7,2.28,6,6,0,0,0,3.34.7,4.59,4.59,0,0,0,2.94-1.5,8.05,8.05,0,0,0,1.48-6.33,10.64,10.64,0,0,0-1-3.12,15.62,15.62,0,0,0-1.77-2.69,18.9,18.9,0,0,0-10.26-6.07,21.65,21.65,0,0,0-10.49.12,28.37,28.37,0,0,0-8,3.43,37,37,0,0,0-5.32,4c-1.37,1.2-2.34,2.24-3,2.92l-.74.8-.27.26a31.73,31.73,0,0,1,3.9-4.13,34.79,34.79,0,0,1,5.3-4.06,28.55,28.55,0,0,1,8.1-3.54,21.93,21.93,0,0,1,10.68-.18A19.18,19.18,0,0,1,138.58,166a16.58,16.58,0,0,1,1.82,2.7,11,11,0,0,1,1,3.27,10.76,10.76,0,0,1-.06,3.49,7,7,0,0,1-1.53,3.25,5.12,5.12,0,0,1-3.26,1.67,6.3,6.3,0,0,1-3.64-.75,8.94,8.94,0,0,1-2.87-2.42,11.74,11.74,0,0,1-1.76-3.36,13.69,13.69,0,0,1-.12-7.43,15.93,15.93,0,0,1,3.27-6.45,22.78,22.78,0,0,1,11.64-6.85,49.39,49.39,0,0,1,12.23-1.42c3.85-.06,7.43,0,10.69-.09a83.29,83.29,0,0,0,8.77-.79,28.93,28.93,0,0,0,6.4-1.7,18.83,18.83,0,0,0,3.66-2c.4-.27.67-.52.87-.66A1.93,1.93,0,0,1,186,146.15Z"/><path class="cls-9" d="M219.06,187.77a2.26,2.26,0,0,1-.43.07c-.28,0-.69.07-1.23.09a40.19,40.19,0,0,1-4.53-.11c-1.91-.14-4.17-.43-6.67-.78s-5.24-.72-8.14-.87a30.89,30.89,0,0,0-8.09.61,20.06,20.06,0,0,0-6.18,2.35,17.45,17.45,0,0,0-4.56,4,1.07,1.07,0,0,1,.22-.37,6.51,6.51,0,0,1,.72-1,13.31,13.31,0,0,1,3.43-3,19.89,19.89,0,0,1,6.26-2.5,30.31,30.31,0,0,1,8.23-.66c2.93.15,5.68.55,8.18.92s4.74.7,6.63.88,3.44.26,4.5.27A13.32,13.32,0,0,1,219.06,187.77Z"/><path class="cls-9" d="M195,232.6a19.81,19.81,0,0,0-5.74-.49,30.81,30.81,0,0,0-6.67,1.19c-2.55.69-5.4,1.7-8.6,2.69a35.7,35.7,0,0,1-10.78,1.87,31.37,31.37,0,0,1-23.48-10.69,23.2,23.2,0,0,1-4-6.22,14.16,14.16,0,0,1-1.15-7.51,10.82,10.82,0,0,1,3.55-6.69,7.58,7.58,0,0,1,3.37-1.72,7.88,7.88,0,0,1,6.93,1.87,6,6,0,0,1,1.8,3.11,6.19,6.19,0,0,1-.27,3.51,8.68,8.68,0,0,1-1.87,2.87,15.13,15.13,0,0,1-5.49,3.49,17.57,17.57,0,0,1-3,.83c-.5.09-1,.2-1.49.27l-1.49.18a32.54,32.54,0,0,1-10.91-.77,33.81,33.81,0,0,1-8.43-3.24,31.49,31.49,0,0,1-5.61-3.88l-1-.87-.82-.83a13,13,0,0,1-1.24-1.34l-.72-.86a1.91,1.91,0,0,1-.22-.3l.27.27.75.82a14.16,14.16,0,0,0,1.27,1.3l.83.81,1,.85a31.82,31.82,0,0,0,5.61,3.77A34.07,34.07,0,0,0,125.8,220a32.31,32.31,0,0,0,10.78.7l1.47-.18c.48-.08,1-.19,1.47-.28a16.09,16.09,0,0,0,2.93-.82,14.58,14.58,0,0,0,5.31-3.39,7.92,7.92,0,0,0,1.76-2.71,5.66,5.66,0,0,0,.25-3.23,6.24,6.24,0,0,0-4.66-4.48,7,7,0,0,0-6.61,1.51,10.28,10.28,0,0,0-3.37,6.37,13.91,13.91,0,0,0,1.09,7.23,23.21,23.21,0,0,0,3.89,6.09,30.12,30.12,0,0,0,11,8,30.81,30.81,0,0,0,12.09,2.56,35.6,35.6,0,0,0,10.68-1.8c3.19-1,6-1.94,8.63-2.61a30.62,30.62,0,0,1,6.73-1.11,17.11,17.11,0,0,1,2.48,0c.72.11,1.33.16,1.8.27l1.1.27A1.65,1.65,0,0,1,195,232.6Z"/><path class="cls-9" d="M107.16,221.93c-.09,0-.55-1-1.52-2.68A26,26,0,0,0,95,209.3c-1.7-.86-2.82-1.24-2.79-1.33a2.64,2.64,0,0,1,.82.19,15.71,15.71,0,0,1,2.13.8A23.28,23.28,0,0,1,106,219.07a18.65,18.65,0,0,1,1,2.06A3.47,3.47,0,0,1,107.16,221.93Z"/><path class="cls-9" d="M68.36,264.73a1.42,1.42,0,0,1-.16-.25l-.41-.75c-.36-.66-.88-1.65-1.52-2.93a67.91,67.91,0,0,1-4.58-11.27,35.91,35.91,0,0,1-1.43-8.29,25.44,25.44,0,0,1,.19-4.7,26.81,26.81,0,0,1,1.18-4.85,21,21,0,0,1,5.87-8.88,14.35,14.35,0,0,1,10.67-3.75,7.92,7.92,0,0,1,5.26,2.56,6.47,6.47,0,0,1,1.49,5.47,5,5,0,0,1-1.42,2.47,6,6,0,0,1-2.44,1.33,7.25,7.25,0,0,1-5.23-.63A11.94,11.94,0,0,1,72,227a17.27,17.27,0,0,1-2.41-4.07,17.8,17.8,0,0,1-1.31-8.28,17.51,17.51,0,0,1,5.14-10.85A15.16,15.16,0,0,1,76,201.72c.31-.21.57-.34.74-.44l.26-.13-.94.66A16.94,16.94,0,0,0,73.58,204a17.52,17.52,0,0,0-3,4.19,16.64,16.64,0,0,0-1.87,6.54,17.45,17.45,0,0,0,1.36,8.1,17.22,17.22,0,0,0,2.36,3.95,11.51,11.51,0,0,0,3.68,3.11,6.72,6.72,0,0,0,4.88.58A4.73,4.73,0,0,0,84.48,227a6,6,0,0,0-1.38-5,7.35,7.35,0,0,0-4.92-2.38,13.84,13.84,0,0,0-10.28,3.61,20.72,20.72,0,0,0-5.75,8.66A26.63,26.63,0,0,0,61,236.62a25.46,25.46,0,0,0-.21,4.62,36.31,36.31,0,0,0,1.36,8.21,73,73,0,0,0,4.4,11.28l1.43,3c.15.32.27.58.37.78S68.36,264.73,68.36,264.73Z"/><path class="cls-9" d="M56,176.45a2.39,2.39,0,0,1,.09.41c.07.4.12.81.15,1.22a25.89,25.89,0,0,1,0,4.49A28.58,28.58,0,0,1,40.13,206a27.24,27.24,0,0,1-4.19,1.61c-.5.16-.91.23-1.18.3s-.42.08-.42.06a11.74,11.74,0,0,1,1.54-.55A32.66,32.66,0,0,0,40,205.67a29.29,29.29,0,0,0,15.92-23.14,34.7,34.7,0,0,0,.17-4.44A11.28,11.28,0,0,1,56,176.45Z"/><path class="cls-9" d="M227.81,219.81a14.4,14.4,0,0,0-3.86,3.52c-1,1.29-2,3-3.13,4.8a37.74,37.74,0,0,1-4.27,5.65,36.17,36.17,0,0,1-10.25,7.71,33.2,33.2,0,0,1-3.58,1.53,8.37,8.37,0,0,1-1.38.4,6.64,6.64,0,0,1,1.3-.59c.84-.37,2.06-.89,3.49-1.67a38.73,38.73,0,0,0,10-7.73,39.42,39.42,0,0,0,4.25-5.55,48.42,48.42,0,0,1,3.25-4.78,12.47,12.47,0,0,1,2.87-2.65,5.23,5.23,0,0,1,.93-.51C227.69,219.84,227.81,219.79,227.81,219.81Z"/><path class="cls-7" d="M173.77,143.86a2,2,0,0,1-.46.12l-1.33.24c-1.16.19-2.84.44-4.91.72-4.16.56-9.92,1.22-16.31,1.69a82,82,0,0,1-9,.32,25.75,25.75,0,0,1-7.29-1.25,16.21,16.21,0,0,1-4.45-2.25,9.86,9.86,0,0,1-1.06-.85c-.22-.22-.33-.33-.32-.35s.52.4,1.49,1a18,18,0,0,0,4.45,2.06,26.14,26.14,0,0,0,7.2,1.12q4.5,0,9-.36c6.37-.47,12.13-1.06,16.29-1.53L172,144A11.53,11.53,0,0,1,173.77,143.86Z"/><path class="cls-5" d="M242.3,261.25a26.87,26.87,0,0,1-21.25,31.5,26.45,26.45,0,0,1-4.86.5l-75.75-.84,2-24.53,64.86-9.74"/><path class="cls-5" d="M147.08,269c-.35.11-4.72-1.85-8.64-3.66a28.12,28.12,0,0,0-13.3-2.58l-18.06.92s1.11,3,3,4S123.3,269,123.3,269l-.58.59a13,13,0,0,1-9,3.94H112a17.12,17.12,0,0,1-3.77-.74l-4.45-1.8c-1.35-.6-2.77-.51-3.36.85s-.14,2.92,3.54,4.77c2,1,9.67,3.67,9.67,3.67a17.58,17.58,0,0,0,.45,3.22c.33,1.11,3.32,2.22,3.32,2.22a39,39,0,0,0,2.66,4.76c.35.4,3.06,1.25,6,2.06a25.78,25.78,0,0,0,14.23-.11l6.88-2.06v-21"/><path class="cls-6" d="M122.38,282.66a20.5,20.5,0,0,1-9.11-2.4c0-.12,2,.64,4.53,1.29S122.39,282.51,122.38,282.66Z"/><path class="cls-6" d="M121.74,286.87a4.67,4.67,0,0,1-2.54-.19,4.76,4.76,0,0,1-2.28-1.12,14.58,14.58,0,0,1,2.4.69A15.62,15.62,0,0,1,121.74,286.87Z"/><path class="cls-6" d="M125,267.32a8.53,8.53,0,0,1-1.39,1.49,22.53,22.53,0,0,1-3.94,3,16,16,0,0,1-4.61,1.78,7.14,7.14,0,0,1-2,.22,26.84,26.84,0,0,0,6.42-2.39,32.29,32.29,0,0,0,4-2.83A10.64,10.64,0,0,1,125,267.32Z"/><path class="cls-3" d="M148.92,265.66l-1.84,27.74h71.35a26.77,26.77,0,0,0,13.75-3.81h0a26.69,26.69,0,0,0,12.44-28A82.35,82.35,0,0,0,240,246.2l-35.88,5.91,1.15,4.46Z"/><path class="cls-7" d="M221.82,254.24c-.24.06-.48.12-.72.16l-2.09.38-7.71,1.28-25.36,4L160.55,264l-7.7,1.12-2.1.28-.74.06a3,3,0,0,1,.73-.17l2.08-.37,7.68-1.29,25.36-4,25.44-3.92,7.7-1.12,2.1-.28A2.88,2.88,0,0,1,221.82,254.24Z"/><path class="cls-9" d="M185.3,293.42c-.13,0,.43-2,.5-5.27a26.17,26.17,0,0,0-.11-2.66,27.45,27.45,0,0,0-.44-3,28.13,28.13,0,0,0-2.32-6.58,30.36,30.36,0,0,0-3.9-5.8l-1-1.17c-.34-.38-.71-.71-1.05-1.05-.67-.69-1.38-1.24-2-1.77-2.55-2-4.36-3-4.3-3.09a7.25,7.25,0,0,1,1.27.65,15.3,15.3,0,0,1,1.44.87c.53.38,1.19.75,1.82,1.29a24.3,24.3,0,0,1,2.06,1.74c.35.34.74.66,1.09,1l1.09,1.18a29.53,29.53,0,0,1,4,5.87,28.44,28.44,0,0,1,2.32,6.72,24.63,24.63,0,0,1,.4,3.09,20.27,20.27,0,0,1,0,2.7,18.66,18.66,0,0,1-.2,2.23,13.58,13.58,0,0,1-.29,1.65A10,10,0,0,1,185.3,293.42Z"/><path class="cls-9" d="M228.74,291.33a15.28,15.28,0,0,1-3.31-.39,17.69,17.69,0,0,1-3.7-1.31,14.63,14.63,0,0,1-4.17-3.1,13.21,13.21,0,0,1-3.07-5.5,14.32,14.32,0,0,1-.53-3.5,13,13,0,0,1,.3-3.73,10.58,10.58,0,0,1,1.48-3.67,8.15,8.15,0,0,1,3-2.86,7.39,7.39,0,0,1,4.19-1,5.69,5.69,0,0,1,5.23,6.21A5,5,0,0,1,225.7,276a11.77,11.77,0,0,1-7.88,1.08,16.45,16.45,0,0,1-13.91-15.76,11.54,11.54,0,0,1,.28-3.32,26.09,26.09,0,0,0-.08,3.31,17,17,0,0,0,2.85,8.42,16.34,16.34,0,0,0,10.92,6.93,11.32,11.32,0,0,0,7.54-1,4.55,4.55,0,0,0,2.22-3.15,5.23,5.23,0,0,0-4.76-5.65h0a6.78,6.78,0,0,0-3.89.89,9,9,0,0,0-4.25,6.18,12.56,12.56,0,0,0-.31,3.62,14,14,0,0,0,.49,3.39,12.67,12.67,0,0,0,2.92,5.37,14.54,14.54,0,0,0,4,3.09,17.75,17.75,0,0,0,3.62,1.37C227.55,291.24,228.75,291.26,228.74,291.33Z"/></g></g></g></svg>